<svg width="101" height="100" viewBox="0 0 101 100" fill="none" xmlns="http://www.w3.org/2000/svg">
<rect x="0.5" width="100" height="100" rx="5" fill="#FDE1E3"/>
<path d="M59.9087 84.5252L56.5681 73.3896H44.1952L40.8545 84.5252H36.7715V86.9997H63.9918V84.5252H59.9087Z" fill="#F8969F"/>
<path d="M18.2119 23.8984C16.1617 23.8984 14.5 25.5601 14.5 27.6103V65.9663H86.2628V27.6103C86.2628 25.5601 84.6011 23.8984 82.5509 23.8984H18.2119Z" fill="#FAB4BA"/>
<path d="M14.5 65.9663V69.6782C14.5 71.7284 16.1617 73.39 18.2119 73.39H82.5508C84.601 73.39 86.2627 71.7284 86.2627 69.6782V65.9663H14.5Z" fill="#F8969F"/>
<path d="M75.1272 14H25.6357C23.5855 14 21.9238 15.6617 21.9238 17.7119V62.2542H78.8391V17.7119C78.8391 15.6617 77.1774 14 75.1272 14Z" fill="#F56976"/>
<path d="M28.1103 17.7119H25.6357V20.1864H28.1103V17.7119Z" fill="#FDE1E3"/>
<path d="M33.0595 17.7119H30.585V20.1864H33.0595V17.7119Z" fill="#FDE1E3"/>
<path d="M38.0082 17.7119H35.5337V20.1864H38.0082V17.7119Z" fill="#FDE1E3"/>
<path d="M75.1273 22.6611H25.6357V25.1357H75.1273V22.6611Z" fill="#FDE1E3"/>
<path d="M28.1104 28.8472H38.0087C38.6917 28.8472 39.2461 29.4014 39.2461 30.0845V37.5082C39.2461 38.1912 38.6918 38.7455 38.0087 38.7455H28.1104C27.4274 38.7455 26.873 38.1913 26.873 37.5082V30.0845C26.873 29.4015 27.4274 28.8472 28.1104 28.8472Z" fill="#FDE1E3"/>
<path d="M45.4321 28.8472H55.3305C56.0135 28.8472 56.5678 29.4014 56.5678 30.0845V37.5082C56.5678 38.1912 56.0136 38.7455 55.3305 38.7455H45.4321C44.7492 38.7455 44.1948 38.1913 44.1948 37.5082V30.0845C44.1948 29.4015 44.7492 28.8472 45.4321 28.8472Z" fill="#FDE1E3"/>
<path d="M62.7544 28.8472H72.6528C73.3357 28.8472 73.8901 29.4014 73.8901 30.0845V37.5082C73.8901 38.1912 73.3358 38.7455 72.6528 38.7455H62.7544C62.0715 38.7455 61.5171 38.1913 61.5171 37.5082V30.0845C61.5171 29.4015 62.0713 28.8472 62.7544 28.8472Z" fill="#FDE1E3"/>
<path d="M28.1104 43.6948H38.0087C38.6917 43.6948 39.2461 44.2491 39.2461 44.9321V52.3559C39.2461 53.0388 38.6918 53.5932 38.0087 53.5932H28.1104C27.4274 53.5932 26.873 53.0389 26.873 52.3559V44.9321C26.873 44.2491 27.4274 43.6948 28.1104 43.6948Z" fill="#FDE1E3"/>
<path d="M45.4321 43.6948H55.3305C56.0135 43.6948 56.5678 44.2491 56.5678 44.9321V52.3559C56.5678 53.0388 56.0136 53.5932 55.3305 53.5932H45.4321C44.7492 53.5932 44.1948 53.0389 44.1948 52.3559V44.9321C44.1948 44.2491 44.7492 43.6948 45.4321 43.6948Z" fill="#FDE1E3"/>
<path d="M62.7544 43.6948H72.6528C73.3357 43.6948 73.8901 44.2491 73.8901 44.9321V52.3559C73.8901 53.0388 73.3358 53.5932 72.6528 53.5932H62.7544C62.0715 53.5932 61.5171 53.0389 61.5171 52.3559V44.9321C61.5171 44.2491 62.0713 43.6948 62.7544 43.6948Z" fill="#FDE1E3"/>
<path d="M57.6816 77.1015L56.5679 73.3896H44.1951L43.0815 77.1015H57.6816Z" fill="#F56976"/>
<path d="M78.8391 62.2539H21.9238V65.9658H78.8391V62.2539Z" fill="#F56976"/>
</svg>
