<svg width="101" height="100" viewBox="0 0 101 100" fill="none" xmlns="http://www.w3.org/2000/svg">
<rect x="0.5" width="100" height="100" rx="5" fill="#DFDDED"/>
<path d="M83.4595 46.1579C83.2917 46.5103 83.1281 46.8879 82.9687 47.2906L77.0658 61.5382L70.2314 51.7336L73.6675 43.4267C73.8185 43.0491 73.9695 42.6841 74.0954 42.3442L83.4595 46.1579Z" fill="#7169AE"/>
<path d="M64.4923 41.7781C64.3665 44.2953 64.1021 46.8126 63.7246 49.3298L54.9394 50.752C54.7528 47.5679 54.8117 44.3742 55.1156 41.1991V41.1865L64.4923 41.7781Z" fill="#7169AE"/>
<path d="M43.1841 26.3723C43.1841 26.3723 44.2916 36.1682 40.6165 37.0228C36.9413 37.8774 33.3794 28.6756 33.3794 28.6756L33.6185 22.2315C34.6632 22.6091 34.779 18.2895 35.9495 18.0126C37.12 17.7357 39.3453 21.5141 40.113 20.7086L43.1841 26.3723Z" fill="#C0BCDB"/>
<path d="M49.8044 54.6784L47.2242 63.0609L46.5194 62.4567L39.962 56.7678L33.3794 28.6753C33.3794 28.6753 35.4687 32.061 39.1439 31.1926C42.8191 30.3241 43.1841 26.3721 43.1841 26.3721L49.8044 54.6784Z" fill="white"/>
<path d="M46.5194 62.4572L39.962 56.7682L33.3794 28.6758C33.3794 28.6758 35.4687 32.0615 39.1439 31.193L46.5194 62.4572Z" fill="#7169AE"/>
<path d="M34.739 57.4855L34.6383 73.1302L24.7078 69.455L14.664 45.2266C14.5348 44.9179 14.5339 44.5704 14.6614 44.261C14.7889 43.9517 15.0344 43.7058 15.3436 43.5778L25.8153 39.2481C26.4583 38.985 27.1933 39.288 27.4641 39.9278L28.4207 42.2562L28.899 43.4142L29.3772 44.5721L30.3464 46.9005L30.8247 48.0585L31.3155 49.229L32.2721 51.5574L32.7503 52.7154L33.2286 53.8733L34.6886 57.3723L34.739 57.4855Z" fill="#7169AE"/>
<path d="M29.3769 44.5717L23.5746 46.9883C23.4179 47.0479 23.2515 47.0778 23.0838 47.0764C22.4885 47.0694 21.9795 46.6462 21.8639 46.0622C21.7483 45.4782 22.0577 44.8931 22.6055 44.6598L28.4203 42.2559L28.8986 43.4138L29.3769 44.5717Z" fill="white"/>
<path d="M31.3149 49.2288L27.816 50.6762C27.6639 50.7369 27.5014 50.7668 27.3377 50.7643C26.7424 50.7573 26.2334 50.3342 26.1178 49.7502C26.0022 49.1662 26.3117 48.581 26.8594 48.3478L30.3458 46.9004L30.8241 48.0583L31.3149 49.2288Z" fill="white"/>
<path d="M87.5 78.1646C87.5 80.5013 86.5718 82.7422 84.9195 84.3945C83.2673 86.0467 81.0263 86.975 78.6897 86.975H23.3103C18.4445 86.975 14.5 83.0305 14.5 78.1646C14.5 73.2988 18.4445 69.3543 23.3103 69.3543C24.1628 69.3519 25.0109 69.4749 25.8276 69.7193C25.926 64.7612 28.7919 60.2756 33.2494 58.1025C37.707 55.9295 43.0059 56.4348 46.9724 59.4112C49.6488 52.2944 57.0319 48.11 64.5126 49.4701C71.9934 50.8303 77.431 57.3457 77.431 64.9491C77.4343 66.5149 77.2009 68.0722 76.7388 69.5683C77.3794 69.4267 78.0336 69.3549 78.6897 69.3543C81.0263 69.3543 83.2673 70.2825 84.9195 71.9348C86.5718 73.587 87.5 75.828 87.5 78.1646Z" fill="#C0BCDB"/>
<path d="M40.1126 20.7085C39.3189 21.615 38.2847 22.2783 37.1297 22.6216C35.9458 22.8243 34.7287 22.689 33.6182 22.2314L33.8573 15.5859C33.8824 14.8461 34.3968 14.2134 35.1159 14.0378C35.236 14.0128 35.3583 14.0001 35.4809 14C36.0904 13.9983 36.6515 14.332 36.9409 14.8685L40.1126 20.7085Z" fill="white"/>
<path d="M64.4925 41.7779C61.3546 41.9363 58.2088 41.7378 55.1157 41.1863C55.3045 39.1348 55.5814 37.1084 55.9087 35.082C58.7406 35.2582 61.5976 35.4344 64.505 35.6107C64.6141 37.6651 64.6099 39.7239 64.4925 41.7779Z" fill="#7169AE"/>
<path d="M55.9087 35.0818C55.9087 35.0818 50.8465 30.4916 55.4367 25.4282C59.2529 21.2193 60.7695 18.3459 60.6726 15.6223C60.6624 15.3671 60.8092 15.1316 61.0429 15.0285C61.2766 14.9254 61.5495 14.9757 61.7311 15.1553C64.8311 18.1899 71.824 26.6604 64.4308 35.6079" fill="#C0BCDB"/>
<path d="M61.9315 32.4767C61.4547 32.4767 61.0189 32.2074 60.8057 31.781C60.5925 31.3546 60.6385 30.8443 60.9246 30.4629C62.0275 28.9515 62.4786 27.061 62.1769 25.2145C62.0491 24.7761 62.1687 24.3029 62.4895 23.9779C62.8103 23.653 63.2819 23.5273 63.7219 23.6494C64.1619 23.7716 64.5012 24.1225 64.6086 24.5663C65.1132 27.1619 64.5059 29.8503 62.9346 31.977C62.6969 32.2915 62.3256 32.4764 61.9315 32.4767Z" fill="white"/>
<path d="M45.6887 79.4236C45.1843 79.4236 44.7285 79.1224 44.5308 78.6584C44.1235 77.7069 43.9137 76.6827 43.9141 75.6477C43.912 72.1104 46.3656 69.0456 49.8178 68.2736C53.2699 67.5016 56.7953 69.2294 58.3001 72.4307C58.5962 73.0598 58.3263 73.8098 57.6972 74.1059C57.0681 74.402 56.3181 74.1321 56.022 73.503C55.201 71.73 53.4197 70.6002 51.4658 70.6133C48.6853 70.6133 46.4313 72.8673 46.4313 75.6477C46.431 76.3436 46.5723 77.0321 46.8466 77.6716C46.9775 77.9787 46.981 78.3252 46.8564 78.6349C46.7318 78.9446 46.4892 79.1921 46.1821 79.3229C46.0262 79.3897 45.8583 79.424 45.6887 79.4236Z" fill="white"/>
<path d="M64.8449 76.0627C64.3518 76.0627 63.9041 75.7749 63.6995 75.3264C63.0839 73.9897 61.7477 73.1325 60.2761 73.1301C59.4264 73.1282 58.6019 73.4178 57.9401 73.9507C57.3965 74.3841 56.6045 74.2948 56.1711 73.7512C55.7377 73.2076 55.827 72.4156 56.3706 71.9822C57.4771 71.0919 58.8558 70.6085 60.2761 70.6128C62.7338 70.6151 64.9653 72.0479 65.9902 74.2817C66.1679 74.6714 66.1354 75.1246 65.9037 75.4848C65.672 75.845 65.2731 76.0627 64.8449 76.0627Z" fill="white"/>
<path d="M32.1204 69.3543C31.4253 69.3543 30.8618 68.7908 30.8618 68.0956C30.8618 63.4664 35.3085 61.9284 35.4986 61.8667C36.1589 61.645 36.874 62.0006 37.0958 62.6609C37.3175 63.3213 36.9619 64.0364 36.3016 64.2581C34.6386 64.8253 33.4838 66.3418 33.3791 68.0956C33.3791 68.7908 32.8156 69.3543 32.1204 69.3543Z" fill="white"/>
<path d="M53.5175 60.5439C53.4139 60.5443 53.3107 60.5316 53.2104 60.5062C52.5361 60.3372 52.1264 59.6537 52.2953 58.9795C53.1406 55.5026 56.2327 53.0391 59.8106 52.9922C60.5057 52.9905 61.0706 53.5525 61.0723 54.2477C61.0741 54.9428 60.512 55.5077 59.8169 55.5094C57.3975 55.5696 55.3175 57.2413 54.7383 59.5911C54.598 60.1511 54.0948 60.5439 53.5175 60.5439Z" fill="white"/>
<path d="M87.4245 39.2855C87.4654 39.4876 87.4096 39.6971 87.2735 39.8519C85.6643 41.7299 84.3759 43.8604 83.4598 46.1576C83.015 46.4892 82.5109 46.7327 81.9747 46.875C80.6003 47.2384 79.1428 47.1184 77.8464 46.5352C77.8338 46.5352 77.8338 46.5226 77.8212 46.5226C76.4792 46.0218 75.3533 45.0695 74.6369 43.8292C74.3694 43.3703 74.1861 42.8674 74.0957 42.344C75.0731 40.0517 75.6724 37.6162 75.8704 35.1321C75.8805 34.9243 75.9939 34.7354 76.1724 34.6286L83.2333 30.2235L85.0583 29.0781L85.5492 31.18L87.4245 39.2855Z" fill="#C0BCDB"/>
<path d="M85.0583 29.0781L81.2195 38.3793H81.2069L77.8464 46.5352C77.8338 46.5352 77.8338 46.5226 77.8212 46.5226C76.4792 46.0218 75.3533 45.0695 74.6369 43.8292C74.3694 43.3703 74.1861 42.8674 74.0957 42.344C75.0731 40.0517 75.6724 37.6162 75.8704 35.1321C75.8805 34.9243 75.9939 34.7354 76.1724 34.6286L83.2333 30.2235L85.0583 29.0781Z" fill="#C0BCDB"/>
<path d="M85.5489 31.18L82.8428 37.6997C82.6497 38.1697 82.193 38.4775 81.6849 38.48C81.5245 38.4782 81.3661 38.4439 81.2192 38.3793H81.2066C80.7348 38.1885 80.4261 37.7303 80.4263 37.2214C80.4293 37.053 80.4635 36.8866 80.527 36.7305L83.233 30.2235L85.058 29.0781L85.5489 31.18Z" fill="white"/>
</svg>
