<svg width="101" height="100" viewBox="0 0 101 100" fill="none" xmlns="http://www.w3.org/2000/svg">
<rect x="0.5" width="100" height="100" rx="5" fill="#DCE2F2"/>
<path d="M39.2679 56.5292C50.746 56.5292 60.6463 49.9764 63.3292 40.5917C63.7977 38.994 64.0351 37.3372 64.0357 35.6721C64.0357 24.1723 52.9254 14.8149 39.2679 14.8149C25.6103 14.8149 14.5 24.1723 14.5 35.6721C14.5293 39.9755 16.062 44.1338 18.8334 47.4265C19.1281 47.7874 19.2083 48.2782 19.0428 48.7142L15.5235 57.9945L25.5428 53.5898C25.898 53.4332 26.3047 53.4441 26.6516 53.6185C30.0327 55.302 33.7232 56.2714 37.4952 56.4669C38.1024 56.5178 38.6797 56.5292 39.2679 56.5292ZM31.4464 34.3685C31.4464 28.6183 34.9542 23.9399 39.2679 23.9399C43.5815 23.9399 47.0893 28.6183 47.0893 34.3685C47.1135 36.672 46.5094 38.9393 45.3427 40.9252L47.7608 42.3764C48.1688 42.6119 48.4183 43.0492 48.4132 43.5209C48.4075 43.9919 48.1484 44.4235 47.7347 44.6494C47.321 44.8754 46.8175 44.8607 46.4178 44.6106L43.6801 42.9697C42.4937 44.1147 40.9171 44.7684 39.2679 44.7971C34.9542 44.7971 31.4464 40.1187 31.4464 34.3685Z" fill="#627EC7"/>
<path d="M62.7324 60.4048L60.3926 66.9576H65.0722L62.7324 60.4048Z" fill="#859BD3"/>
<path d="M41.3042 41.5379L39.9 40.6958C39.2979 40.319 39.1082 39.5285 39.4742 38.9193C39.8402 38.3102 40.6269 38.1065 41.2431 38.4617L43.1081 39.5826C44.0272 37.9996 44.502 36.1983 44.4823 34.3683C44.4823 30.1292 42.0941 26.5469 39.268 26.5469C36.4419 26.5469 34.0537 30.1292 34.0537 34.3683C34.0537 38.6075 36.4419 42.1897 39.268 42.1897C39.9962 42.1783 40.7046 41.9517 41.3042 41.5379Z" fill="#627EC7"/>
<path d="M62.7322 83.904C66.7454 83.9167 70.716 83.081 74.3835 81.4522C74.7298 81.2956 75.1276 81.2975 75.4719 81.4585L86.2576 86.4914L82.2088 77.0526C82.0076 76.5829 82.0986 76.0393 82.4424 75.6612C85.6612 72.247 87.4682 67.7398 87.5001 63.0469C87.5001 52.4292 77.9238 43.4933 65.5169 42.3291C65.4622 42.487 65.3865 42.6353 65.3343 42.7918C65.221 43.0967 65.1019 43.3997 64.9759 43.7046C64.8492 44.0095 64.706 44.3252 64.5596 44.6288C64.4139 44.9324 64.2707 45.2208 64.1153 45.5097C63.96 45.7994 63.7933 46.0928 63.624 46.3792C63.4546 46.6663 63.2796 46.9489 63.1027 47.2283C62.9251 47.5071 62.7309 47.7757 62.5368 48.0443C62.3427 48.3123 62.1453 48.5879 61.9334 48.8521C61.7208 49.1168 61.5133 49.3657 61.2956 49.619C61.0779 49.8717 60.8539 50.1295 60.6215 50.379C60.3899 50.6279 60.155 50.8583 59.915 51.0945C59.6751 51.3306 59.43 51.5712 59.1773 51.801C58.9246 52.0301 58.6649 52.2478 58.4033 52.4668C58.1411 52.6857 57.8814 52.9066 57.6089 53.1186C57.3365 53.3312 57.0501 53.531 56.7668 53.7328C56.4842 53.9346 56.2118 54.1236 55.9235 54.3197C55.6358 54.5151 55.3201 54.6965 55.0114 54.8798C54.702 55.0637 54.4296 55.2343 54.1285 55.4011C53.8274 55.5685 53.4767 55.7404 53.1508 55.9046C52.8472 56.0573 52.5474 56.2146 52.2387 56.3584C51.8956 56.5144 51.5424 56.6569 51.1955 56.8014C50.8842 56.9319 50.5762 57.0624 50.2598 57.1833C49.8932 57.3202 49.5164 57.4443 49.1427 57.5627C48.8258 57.6671 48.5139 57.7791 48.1937 57.8727C47.8022 57.9879 47.3968 58.0827 46.9971 58.1833C46.6826 58.2616 46.3726 58.35 46.0531 58.4194C45.6241 58.513 45.1849 58.5836 44.7495 58.6588C44.4497 58.7109 44.1538 58.774 43.8502 58.8179C43.3575 58.8885 42.8553 58.9331 42.355 58.9808C42.094 59.0057 41.8464 59.0438 41.588 59.0617C40.8191 59.1113 40.0457 59.1361 39.2679 59.1361C38.9796 59.1361 38.6944 59.1361 38.4086 59.126C38.1139 60.4117 37.965 61.7274 37.9644 63.0469C37.9644 74.5467 49.0746 83.904 62.7322 83.904ZM54.9865 74.3411L61.5044 56.0911C61.689 55.5717 62.181 55.2248 62.7322 55.2248C63.2834 55.2248 63.7754 55.5717 63.96 56.0911L70.4779 74.3411C70.7198 75.019 70.3665 75.7649 69.688 76.0068C69.0101 76.2487 68.2641 75.8954 68.0222 75.2169L66.0026 69.5647H59.4618L57.4422 75.2169C57.2003 75.8954 56.4543 76.2487 55.7764 76.0068C55.0979 75.7649 54.7447 75.019 54.9865 74.3411Z" fill="#859BD3"/>
</svg>
