<svg width="101" height="100" viewBox="0 0 101 100" fill="none" xmlns="http://www.w3.org/2000/svg">
<rect x="0.5" width="100" height="100" rx="5" fill="#E0F4F4"/>
<path d="M37.5793 33.0002C39.832 33.0002 41.6579 34.8265 41.6579 37.0792C41.6579 39.3319 39.8319 41.1582 37.5793 41.1582C35.3267 41.1582 33.5003 39.3318 33.5003 37.0792C33.5003 34.8266 35.3266 33.0002 37.5793 33.0002ZM19.2283 49.3508L25.3074 55.4299L30.1058 50.6317C31.1019 51.1824 32.1652 51.6261 33.2808 51.9477V58.7324H37.8193H41.878V51.9477C42.9933 51.6261 44.0565 51.1822 45.053 50.6317L49.8513 55.4299L55.9305 49.3508L51.1317 44.5524C51.6825 43.556 52.1265 42.4926 52.4483 41.3775H59.2333V32.7802H54.4046H52.4477C52.1264 31.6652 51.682 30.6017 51.1317 29.6055L55.9305 24.8071L49.851 18.728L45.0527 23.5265C44.0566 22.976 42.9934 22.5321 41.878 22.2105V15.4258H33.2808V22.2106C32.1654 22.5323 31.1023 22.9761 30.1058 23.5266L25.3077 18.7282L19.2286 24.8074L24.0269 29.6058C23.4764 30.6019 23.0324 31.6654 22.7106 32.7805H15.9258V41.3777H22.7103C23.0324 42.4927 23.4761 43.5562 24.0266 44.5527L19.2283 49.3508Z" fill="#49A0A0"/>
<path d="M43.3159 85.5743H63.6682C65.4306 85.5743 64.6457 78.4413 67.6851 78.9191C76.118 78.9191 78.9354 80.4245 81.5367 76.677C83.0734 74.4632 81.7426 69.5566 82.2405 66.0527C82.3837 65.043 86.0741 63.5091 86.0741 62.4109C86.0741 60.7313 82.3572 55.0876 82.9697 53.6127C87.4746 42.7658 73.4581 31.6279 61.7965 31.6279C59.2177 31.6279 56.7342 32.0323 54.4042 32.7807H59.2329V41.378H52.4479C52.1259 42.4929 51.6821 43.5564 51.1313 44.5529L55.93 49.3513L49.8508 55.4304L45.0525 50.6322C44.0562 51.1829 42.993 51.6266 41.8776 51.9482V58.7329H37.8188C38.5617 64.8375 41.581 70.2395 46.0029 74.0636C47.7765 75.5971 44.1597 82.9178 43.3159 85.5743Z" fill="#95D8D8"/>
<path d="M77.3203 43.9741C76.8395 43.3493 76.3349 42.7586 75.8204 42.2182C72.8012 39.05 69.0826 37.003 65.0663 36.2986C64.2907 36.1624 63.5517 36.681 63.4157 37.4566C63.2797 38.2322 63.7981 38.9712 64.5737 39.1072C67.9852 39.7056 71.1604 41.4616 73.7557 44.1851C74.2014 44.6532 74.6404 45.1673 75.0606 45.7132C75.3415 46.0782 75.7642 46.2696 76.1915 46.2696C76.4951 46.2696 76.801 46.1731 77.0601 45.9736C77.684 45.4934 77.8006 44.5981 77.3203 43.9741Z" fill="white"/>
<path d="M79.5963 47.5928C79.244 46.8885 78.3891 46.6059 77.6849 46.9581C76.9808 47.3101 76.6967 48.1687 77.0481 48.8729C77.2892 49.3926 77.8042 49.6987 78.3422 49.6987C78.5415 49.6987 78.7441 49.6566 78.9371 49.568C79.6526 49.2389 79.9657 48.3921 79.6366 47.6768C79.6239 47.649 79.6102 47.6206 79.5963 47.5928Z" fill="white"/>
<path d="M85.897 57.9903C85.3124 56.7641 84.3443 54.7335 84.3271 54.0617C85.9944 49.9522 85.3863 45.4045 82.6093 41.2444C78.3385 34.8464 69.5856 30.2025 61.7967 30.2025C59.2022 30.2025 56.6438 30.591 54.1883 31.3552H53.4838C53.3038 30.8555 53.0997 30.3633 52.8728 29.8817L56.9386 25.8162C57.206 25.5488 57.3562 25.1862 57.3562 24.8081C57.3562 24.43 57.206 24.0672 56.9386 23.7999L50.8591 17.7208C50.3022 17.1641 49.3997 17.1641 48.8427 17.721L44.7773 21.7864C44.296 21.5596 43.8038 21.3556 43.3037 21.1755V15.4268C43.3037 14.6393 42.6652 14.001 41.8779 14.001H33.2806C32.4933 14.001 31.8548 14.6393 31.8548 15.4268V21.1755C31.3545 21.3556 30.8625 21.5596 30.381 21.7864L26.3158 17.7208C26.0485 17.4533 25.6858 17.3032 25.3077 17.3032C24.9295 17.3032 24.567 17.4535 24.2995 17.7208L18.2204 23.7998C17.6637 24.3565 17.6637 25.2593 18.2204 25.8161L22.2859 29.8816C22.0589 30.363 21.855 30.8551 21.6748 31.3552H15.9258C15.1383 31.3552 14.5 31.9936 14.5 32.781V41.3783C14.5 42.1658 15.1383 42.8041 15.9258 42.8041H21.6745C21.8547 43.3045 22.0587 43.7966 22.2854 44.2779L18.22 48.3435C17.6632 48.9003 17.6632 49.8031 18.22 50.3598L24.2991 56.4389C24.856 56.9958 25.7585 56.9958 26.3155 56.439L30.381 52.3739C30.8623 52.6007 31.3545 52.8047 31.855 52.985V58.7334C31.855 59.5209 32.4934 60.1592 33.2807 60.1592H36.589C37.5859 65.9447 40.5464 71.2079 45.0162 75.0952C45.0614 75.236 45.1932 75.896 44.6269 77.8659C44.1856 79.4005 43.5085 81.1054 42.9113 82.6094C42.5114 83.6162 42.166 84.4856 41.9573 85.1432C41.8197 85.5766 41.897 86.0497 42.1656 86.4167C42.4341 86.7837 42.8615 87.0005 43.3162 87.0005H63.6684C64.3371 87.0005 65.2558 86.701 65.8341 85.2744C66.0856 84.6537 66.2499 83.9068 66.4239 83.1159C66.5933 82.3455 66.9904 80.5415 67.3852 80.3234C67.3852 80.3234 67.4083 80.3194 67.4641 80.3282C67.5374 80.3398 67.6114 80.3455 67.6856 80.3455C69.817 80.3455 71.5585 80.4421 73.095 80.5272C77.6015 80.777 80.3221 80.9282 82.7084 77.4906C83.922 75.7423 83.7846 73.1926 83.639 70.4933C83.5641 69.1022 83.4867 67.6662 83.6243 66.4725C83.873 66.2274 84.4963 65.7994 84.8868 65.5312C86.2308 64.6083 87.5 63.7366 87.5 62.4115C87.5 61.4039 86.8908 60.0751 85.897 57.9903ZM33.6758 50.5787C32.6764 50.2905 31.7074 49.8888 30.7956 49.3847C30.2396 49.0773 29.5472 49.175 29.0977 49.6244L25.3074 53.4143L21.2446 49.3515L25.0349 45.5612C25.484 45.112 25.582 44.4196 25.2747 43.8636C24.7709 42.9518 24.3689 41.9825 24.0802 40.9826C23.904 40.3725 23.3455 39.9525 22.7105 39.9525H17.3516V34.2069H22.7106C23.3458 34.2069 23.9044 33.7867 24.0804 33.1765C24.3686 32.1776 24.7706 31.2087 25.2747 30.2963C25.5821 29.7401 25.4845 29.0478 25.0351 28.5985L21.2449 24.8081L25.3077 20.7453L29.0977 24.5355C29.5469 24.9849 30.2397 25.0825 30.7953 24.7753C31.7081 24.271 32.6772 23.8692 33.6758 23.5812C34.2861 23.4051 34.7065 22.8465 34.7065 22.2113V16.8522H40.4523V22.2113C40.4523 22.8465 40.8724 23.4053 41.4829 23.5812C42.4818 23.8693 43.4508 24.271 44.363 24.7751C44.9189 25.0825 45.6113 24.9849 46.0608 24.5355L49.851 20.7453L53.914 24.8081L50.1234 28.5982C49.6743 29.0475 49.5764 29.7397 49.8836 30.2959C50.3886 31.2101 50.7903 32.179 51.0777 33.1759C51.2535 33.7865 51.8123 34.2069 52.4476 34.2069H54.411C54.4144 34.2069 54.4179 34.2069 54.4211 34.2069H57.8074V39.9527H52.4482C51.8131 39.9527 51.2545 40.3727 51.0784 40.9829C50.7898 41.9824 50.3879 42.9516 49.8838 43.8634C49.5764 44.4196 49.674 45.1121 50.1234 45.5615L53.914 49.3517L49.8512 53.4144L46.0611 49.6244C45.6117 49.1751 44.9192 49.0773 44.3633 49.3847C43.4511 49.8889 42.482 50.2907 41.4829 50.5787C40.8726 50.7548 40.4523 51.3134 40.4523 51.9486V57.3075H34.7065V51.9486C34.7065 51.3132 34.2861 50.7548 33.6758 50.5787ZM83.2726 63.1804C82.0454 64.0233 80.9853 64.7512 80.8291 65.8526C80.6145 67.3631 80.7045 69.0324 80.7914 70.6468C80.8994 72.6494 81.0217 74.9194 80.3657 75.8645C78.9471 77.9081 77.7199 77.9273 73.2528 77.68C71.7788 77.5981 69.9498 77.4968 67.7815 77.4938C66.9482 77.3948 65.5395 77.5519 64.5993 79.3793C64.1217 80.3075 63.8652 81.4738 63.6388 82.5031C63.525 83.0202 63.3653 83.7466 63.2155 84.1489H45.3682C45.4306 83.991 45.4954 83.8283 45.5614 83.6618C47.6149 78.4905 48.9157 74.6977 46.936 72.9855C43.062 69.6353 40.4554 65.1274 39.4876 60.159H41.878C42.6653 60.159 43.3038 59.5207 43.3038 58.7333V52.9847C43.8043 52.8046 44.2961 52.6006 44.7778 52.3737L48.8431 56.4389C49.4 56.9957 50.3025 56.9955 50.8596 56.4389L56.9388 50.3598C57.2061 50.0924 57.3564 49.7298 57.3564 49.3517C57.3564 48.9735 57.2061 48.6108 56.9388 48.3435L52.873 44.2782C53.0999 43.7968 53.3041 43.3045 53.4843 42.8042H59.2333C60.0206 42.8042 60.6591 42.1659 60.6591 41.3784V33.0833C61.0372 33.0646 61.4166 33.0542 61.7968 33.0542C68.5905 33.0542 76.5184 37.2558 80.2377 42.8276C81.8317 45.2155 83.3711 48.9302 81.6533 53.0662C81.0938 54.4133 81.9234 56.2814 83.323 59.2175C83.7762 60.1677 84.432 61.5436 84.6058 62.1863C84.3112 62.4671 83.6778 62.9021 83.2726 63.1804Z" fill="#95D8D8"/>
<path d="M37.5298 30.1487L37.5795 30.1484C38.3669 30.1484 39.0053 29.5101 39.0053 28.7227C39.0053 27.9352 38.3669 27.2969 37.5795 27.2969L37.5298 27.2972C36.7425 27.2972 36.104 27.9355 36.104 28.7229C36.104 29.5104 36.7425 30.1487 37.5298 30.1487Z" fill="white"/>
<path d="M33.1149 42.38C31.5479 41.0583 30.6489 39.1263 30.6489 37.079C30.6489 34.436 32.1185 32.0593 34.4838 30.876C35.188 30.5237 35.4733 29.6672 35.1211 28.963C34.769 28.259 33.9122 27.9734 33.2082 28.3257C29.8707 29.9952 27.7974 33.3492 27.7974 37.079C27.7974 39.9686 29.0656 42.6953 31.2767 44.5599C31.5442 44.7856 31.8705 44.8957 32.195 44.8957C32.6008 44.8957 33.0037 44.7234 33.2856 44.3891C33.7933 43.7871 33.7169 42.8876 33.1149 42.38Z" fill="white"/>
<path d="M43.0838 37.079C43.0838 34.0437 40.6147 31.5742 37.5795 31.5742C34.5441 31.5742 32.0747 34.0437 32.0747 37.079C32.0747 40.1143 34.5441 42.5838 37.5795 42.5838C40.6145 42.5839 43.0838 40.1143 43.0838 37.079ZM34.9261 37.079C34.9261 35.616 36.1164 34.4258 37.5793 34.4258C39.0422 34.4258 40.2321 35.616 40.2321 37.079C40.2321 38.542 39.042 39.7322 37.5793 39.7322C36.1162 39.7324 34.9261 38.5421 34.9261 37.079Z" fill="#95D8D8"/>
</svg>
