<svg width="53" height="81" viewBox="0 0 53 81" fill="none" xmlns="http://www.w3.org/2000/svg">
<path opacity="0.5" d="M19.1423 66.3136H52.2135V80.6895H0.322266V74.7635C0.322266 70.7398 0.993116 67.1366 2.33482 63.9542C3.67652 60.7352 5.36271 57.8637 7.3934 55.3397C9.42408 52.7791 11.6361 50.5294 14.0294 48.5907C16.4589 46.6154 18.7616 44.8413 20.9373 43.2683C23.2218 41.6222 25.2163 40.0493 26.9206 38.5495C28.6612 37.0498 30.1117 35.5683 31.2721 34.1051C32.4687 32.6053 33.3571 31.1055 33.9373 29.6058C34.5175 28.0694 34.8076 26.4416 34.8076 24.7224C34.8076 21.357 33.8648 18.8147 31.9792 17.0955C30.0935 15.3762 27.2107 14.5166 23.3306 14.5166C16.6221 14.5166 10.2037 17.2052 4.0754 22.5825V7.32869C10.8564 2.90253 18.5078 0.689453 27.0294 0.689453C30.982 0.689453 34.5175 1.21986 37.6361 2.28067C40.7909 3.30491 43.4562 4.78639 45.6319 6.72512C47.8076 8.66385 49.4576 11.0232 50.5817 13.8033C51.7421 16.5468 52.3223 19.6195 52.3223 23.0214C52.3223 26.6428 51.7602 29.8618 50.6361 32.6785C49.5482 35.4951 48.0796 38.0557 46.2302 40.3602C44.4171 42.6648 42.3139 44.7864 39.9206 46.7251C37.5273 48.6273 35.0433 50.4745 32.4687 52.267C30.7281 53.5107 29.0419 54.7544 27.4101 55.9981C25.8146 57.2052 24.4004 58.4124 23.1675 59.6195C21.9345 60.7901 20.9555 61.9423 20.2302 63.0763C19.505 64.2103 19.1423 65.2894 19.1423 66.3136Z" fill="white"/>
</svg>
