<svg width="51" height="81" viewBox="0 0 51 81" fill="none" xmlns="http://www.w3.org/2000/svg">
<path opacity="0.5" d="M0.648438 76.8054V61.9706C5.90008 65.7468 12.027 67.6348 19.0292 67.6348C23.442 67.6348 26.8702 66.6998 29.3136 64.8297C31.7936 62.9596 33.0336 60.3523 33.0336 57.0077C33.0336 53.5553 31.5018 50.894 28.4384 49.0239C25.4114 47.1538 21.2356 46.2188 15.911 46.2188H8.63531V33.1642H15.364C25.5755 33.1642 30.6813 29.8196 30.6813 23.1305C30.6813 16.8369 26.7608 13.6901 18.9198 13.6901C13.6681 13.6901 8.56237 15.3624 3.60249 18.707V4.78925C9.10942 2.05605 15.5281 0.689453 22.8585 0.689453C30.8818 0.689453 37.1182 2.46963 41.5675 6.02998C46.0532 9.59033 48.2961 14.2116 48.2961 19.8938C48.2961 29.9994 43.0992 36.3289 32.7053 38.8823V39.152C38.2487 39.8353 42.6251 41.8313 45.8344 45.1399C49.0438 48.4125 50.6484 52.4404 50.6484 57.2235C50.6484 64.4521 47.9679 70.1702 42.6069 74.3779C37.2458 78.5856 29.8425 80.6895 20.3968 80.6895C12.3005 80.6895 5.71773 79.3948 0.648438 76.8054Z" fill="white"/>
</svg>
