<?xml version="1.0" encoding="utf-8"?><svg xmlns="http://www.w3.org/2000/svg" xmlns:xlink="http://www.w3.org/1999/xlink"><symbol fill="none" viewBox="0 0 12 10" id="accept" xmlns="http://www.w3.org/2000/svg"><path d="M11 1L4 8 1 5" stroke="#DBB20F" stroke-width="2"/></symbol><symbol fill="none" viewBox="0 0 14 14" id="arrow" xmlns="http://www.w3.org/2000/svg"><path d="M0 7h12m0 0L6 1m6 6l-6 6" stroke="#435FE4" stroke-width="2"/></symbol><symbol fill="none" viewBox="0 0 24 24" id="bullit" xmlns="http://www.w3.org/2000/svg"><circle cx="12" cy="12" r="12" fill="#FFE068" fill-opacity=".32"/><path d="M17 8l-7 7-3-3" stroke="#DBB20F" stroke-width="2"/></symbol><symbol fill="none" viewBox="0 0 32 32" id="plus" xmlns="http://www.w3.org/2000/svg"><mask id="da" maskUnits="userSpaceOnUse" x="0" y="0" width="32" height="32"><path fill="#C4C4C4" d="M0 0h32v32H0z"/></mask><g mask="url(#da)"><path d="M16 4.686V16m0 11.314V16m0 0H4.687h22.627" stroke="#435FE4" stroke-width="3"/></g></symbol><symbol fill="none" viewBox="0 0 26 26" id="popup-close" xmlns="http://www.w3.org/2000/svg"><path d="M25.276 23.26L2.648.633l-1.94 1.94L23.337 25.2l1.94-1.94z" fill="#272526"/><path d="M23.338.632L.711 23.26l1.94 1.94L25.278 2.572l-1.94-1.94z" fill="#272526"/></symbol></svg>