<?xml version="1.0" encoding="utf-8"?><svg width="1014" height="677" viewBox="0 0 1014 677" xmlns="http://www.w3.org/2000/svg" xmlns:xlink="http://www.w3.org/1999/xlink"><svg width="12" height="10" fill="none" viewBox="0 0 12 10" id="accept" xmlns="http://www.w3.org/2000/svg"><path d="M11 1L4 8 1 5" stroke="#DBB20F" stroke-width="2"/></svg><svg width="26" height="26" fill="none" viewBox="0 0 26 26" id="accord-plus" x="12" y="10" xmlns="http://www.w3.org/2000/svg"><path d="M13 1.686V13m0 11.314V13m0 0H1.687h22.627" stroke="#435FE4" stroke-width="3"/></svg><svg width="770" height="497" fill="none" viewBox="0 0 770 497" id="animation-background" x="38" y="36" xmlns="http://www.w3.org/2000/svg"><path d="M105 312l-13.5 51.5-28-6.5-10 59.5h-35l-15 59" stroke="#FFE068" stroke-width="6"/><path d="M647 188l13.5-51.5H697L707 77h43l16.5-65" stroke="#435FE4" stroke-width="6"/><g filter="url(#cfilter0_d)"><path fill="#FFE068" d="M192 483h400v6H192z"/></g><circle cx="392" cy="280" r="199" stroke="#435FE4" stroke-width="2"/><circle cx="392" cy="240" r="199" stroke="#435FE4" stroke-width="2"/><circle cx="392" cy="200" r="199" stroke="#435FE4" stroke-width="2"/><defs><filter id="cfilter0_d" x="188" y="483" width="408" height="14" filterUnits="userSpaceOnUse" color-interpolation-filters="sRGB"><feFlood flood-opacity="0" result="BackgroundImageFix"/><feColorMatrix in="SourceAlpha" values="0 0 0 0 0 0 0 0 0 0 0 0 0 0 0 0 0 0 127 0"/><feOffset dy="4"/><feGaussianBlur stdDeviation="2"/><feColorMatrix values="0 0 0 0 0 0 0 0 0 0 0 0 0 0 0 0 0 0 0.25 0"/><feBlend in2="BackgroundImageFix" result="effect1_dropShadow"/><feBlend in="SourceGraphic" in2="effect1_dropShadow" result="shape"/></filter></defs></svg><svg width="10" height="6" fill="none" viewBox="0 0 10 6" id="header-menu-arrow" x="808" y="533" xmlns="http://www.w3.org/2000/svg"><path d="M9 1L5 5 1 1" stroke="#121726" stroke-width="1.8" stroke-linecap="round" stroke-linejoin="round"/></svg><svg width="48" height="32" fill="none" viewBox="0 0 48 32" id="logo" x="818" y="539" xmlns="http://www.w3.org/2000/svg"><path fill-rule="evenodd" clip-rule="evenodd" d="M32 0C14.327 0 0 14.327 0 32h31.948C23.135 31.972 16 24.82 16 16c0-8.836 7.163-16 16-16z" fill="#FFE068"/><path fill-rule="evenodd" clip-rule="evenodd" d="M26.4 30.993c6.075-2.27 10.4-8.127 10.4-14.993S32.475 3.277 26.4 1.007A15.966 15.966 0 0132 0c8.837 0 16 7.163 16 16s-7.163 16-16 16c-1.97 0-3.857-.356-5.6-1.007z" fill="#435FE4"/></svg><svg width="48" height="32" fill="none" viewBox="0 0 48 32" id="logo-dark" x="866" y="571" xmlns="http://www.w3.org/2000/svg"><path fill-rule="evenodd" clip-rule="evenodd" d="M32 0C14.327 0 0 14.327 0 32h31.948C23.135 31.972 16 24.82 16 16c0-8.836 7.163-16 16-16z" fill="#121726"/><path fill-rule="evenodd" clip-rule="evenodd" d="M26.4 30.993c6.075-2.27 10.4-8.127 10.4-14.993S32.475 3.277 26.4 1.007A15.966 15.966 0 0132 0c8.837 0 16 7.163 16 16s-7.163 16-16 16c-1.97 0-3.857-.356-5.6-1.007z" fill="#435FE4"/></svg><svg width="37" height="24" fill="none" viewBox="0 0 37 24" id="logo-dark-small" x="914" y="603" xmlns="http://www.w3.org/2000/svg"><path fill-rule="evenodd" clip-rule="evenodd" d="M24.047 0C10.792 0 0 10.745 0 24h24.047c-6.64 0-12.023-5.373-12.023-12S17.407 0 24.047 0z" fill="#121726"/><path fill-rule="evenodd" clip-rule="evenodd" d="M19.84 23.244c4.565-1.702 7.815-6.094 7.815-11.244 0-5.15-3.25-9.542-7.815-11.244A12.02 12.02 0 0124.048 0c6.64 0 12.024 5.373 12.024 12s-5.383 12-12.024 12a12.02 12.02 0 01-4.208-.756z" fill="#435FE4"/></svg><svg width="37" height="24" fill="none" viewBox="0 0 37 24" id="logo-small" x="951" y="627" xmlns="http://www.w3.org/2000/svg"><path fill-rule="evenodd" clip-rule="evenodd" d="M24.047 0C10.792 0 0 10.745 0 24h24.047c-6.64 0-12.023-5.373-12.023-12S17.407 0 24.047 0z" fill="#FFE068"/><path fill-rule="evenodd" clip-rule="evenodd" d="M19.84 23.244c4.565-1.702 7.815-6.094 7.815-11.244 0-5.15-3.25-9.542-7.815-11.244A12.02 12.02 0 0124.048 0c6.64 0 12.024 5.373 12.024 12s-5.383 12-12.024 12a12.02 12.02 0 01-4.208-.756z" fill="#435FE4"/></svg><svg width="26" height="26" fill="none" viewBox="0 0 26 26" id="popup-close" x="988" y="651" xmlns="http://www.w3.org/2000/svg"><path d="M25.276 23.26L2.648.633l-1.94 1.94L23.337 25.2l1.94-1.94z" fill="#272526"/><path d="M23.338.632L.711 23.26l1.94 1.94L25.278 2.572l-1.94-1.94z" fill="#272526"/></svg></svg>