<svg width="50" height="50" viewBox="0 0 50 50" fill="none" xmlns="http://www.w3.org/2000/svg">
<path d="M25.4863 14.5663H22.5566C22.4609 10.6103 19.2119 7.42185 15.2344 7.42185C11.2568 7.42185 8.00781 10.6103 7.91211 14.5663H4.98242C5.07813 8.99508 9.63965 4.49219 15.2344 4.49219C20.8291 4.49219 25.3906 8.99508 25.4863 14.5663Z" fill="#627EC7"/>
<path d="M5.11914 16.5195C7.64627 32.0787 7.48485 31.1768 7.56346 31.3798C8.05858 30.7519 8.62693 30.0312 9.27732 29.205C11.5066 26.375 15.3741 25.7702 18.3075 27.4472C20.369 28.6244 21.1705 29.223 22.7538 29.3593L25.3221 16.5195H5.11914Z" fill="#627EC7"/>
<path d="M41.9229 3.38378L38.4668 18.7216L35.6094 18.078L39.0654 2.73926L41.9229 3.38378Z" fill="#627EC7"/>
<path d="M43.2448 4.18224L37.5288 2.89406C36.7396 2.71623 36.2441 1.93225 36.4219 1.14299C36.5997 0.353737 37.3838 -0.141477 38.173 0.0360616L43.8889 1.32424C44.6782 1.50207 45.1737 2.28606 44.9958 3.07531C44.818 3.86427 44.0344 4.36007 43.2448 4.18224Z" fill="#627EC7"/>
<path d="M40.4795 18.6747L33.8105 17.1718C30.9141 16.5195 28.043 18.3349 27.3906 21.2304L25.6699 28.8622C26.2504 28.6031 26.5115 28.4004 27.9014 27.4735C30.5696 25.6954 34.0927 25.9553 36.4678 28.0507C39.3045 30.5513 41.3903 32.3731 42.5928 33.4325C42.7497 33.1594 42.5983 33.7047 44.5381 25.0956C45.1894 22.206 43.3681 19.3261 40.4795 18.6747V18.6747Z" fill="#627EC7"/>
<path d="M36.7909 27.6846C34.2343 25.4307 30.4677 25.1768 27.6308 27.0674L26.2675 27.9766C24.5458 29.124 22.3593 29.2002 20.5625 28.1729L18.5498 27.0235C15.3134 25.1739 11.2041 25.9698 8.89354 28.9033C3.56631 35.6692 3.7916 35.2932 3.69629 35.7421H45.5028C45.3704 35.1036 45.7203 35.5552 36.7909 27.6846V27.6846Z" fill="#DCE2F2"/>
<path d="M48.5349 49.9999H1.46484C0.655856 49.9999 0 49.3441 0 48.5351V36.7187C0 35.9098 0.655856 35.2539 1.46484 35.2539H48.5349C49.3439 35.2539 49.9998 35.9098 49.9998 36.7187V48.5351C49.9998 49.3441 49.3439 49.9999 48.5349 49.9999Z" fill="#627EC7"/>
<path d="M48.535 35.2539H25V49.9998H48.535C49.3436 49.9998 49.9999 49.3446 49.9999 48.535V36.7187C49.9999 35.9101 49.3436 35.2539 48.535 35.2539Z" fill="#627EC7"/>
<path d="M25.4883 14.0776H4.98047C4.17148 14.0776 3.51562 14.7335 3.51562 15.5425C3.51562 16.3515 4.17148 17.0073 4.98047 17.0073H25.4883C26.2973 17.0073 26.9531 16.3515 26.9531 15.5425C26.9531 14.7335 26.2973 14.0776 25.4883 14.0776Z" fill="#627EC7"/>
</svg>
