<svg width="50" height="48" viewBox="0 0 50 48" fill="none" xmlns="http://www.w3.org/2000/svg">
<path d="M33.5991 5.66406H26.918V9.51952H33.5991V5.66406Z" fill="#7169AE"/>
<path d="M26.7432 5.66469H33.7746C35.069 5.66469 36.1183 4.61524 36.1183 3.32063C36.1183 2.02602 35.069 0.976562 33.7746 0.976562H26.7432C25.4487 0.976562 24.3994 2.02602 24.3994 3.32063C24.3994 4.61524 25.4487 5.66469 26.7432 5.66469Z" fill="#7169AE"/>
<path d="M30.2737 47.0234C40.6292 47.0234 49.024 38.6278 49.024 28.2714C49.024 17.915 40.6292 9.51953 30.2737 9.51953C19.9182 9.51953 11.5234 17.915 11.5234 28.2714C11.5234 38.6278 19.9182 47.0234 30.2737 47.0234Z" fill="#7169AE"/>
<path d="M30.2736 42.4461C38.1011 42.4461 44.4465 36.1001 44.4465 28.2719C44.4465 20.4437 38.1011 14.0977 30.2736 14.0977C22.446 14.0977 16.1006 20.4437 16.1006 28.2719C16.1006 36.1001 22.446 42.4461 30.2736 42.4461Z" fill="#DFDDED"/>
<path d="M30.2738 30.33C31.4104 30.33 32.3318 29.4085 32.3318 28.2717C32.3318 27.1349 31.4104 26.2134 30.2738 26.2134C29.1372 26.2134 28.2158 27.1349 28.2158 28.2717C28.2158 29.4085 29.1372 30.33 30.2738 30.33Z" fill="#7169AE"/>
<path d="M49.9036 26.3097C49.4547 21.7938 47.4374 17.5365 44.2231 14.3218C41.4761 11.5747 38.114 9.8094 34.5762 9.02445V6.54295C36.0212 6.18344 37.0952 4.8754 37.0952 3.32065C37.0952 1.4896 35.6057 0 33.7748 0H26.7435C24.9126 0 23.4231 1.4896 23.4231 3.32065C23.4231 4.8753 24.4972 6.18334 25.942 6.54295V9.03139C22.4151 9.81965 19.0641 11.5825 16.325 14.3219C15.7255 14.9213 15.1728 15.5502 14.6668 16.2038C14.6423 16.2019 14.6178 16.2001 14.5928 16.2001H7.63362C7.09435 16.2001 6.65704 16.6373 6.65704 17.1767C6.65704 17.7162 7.09435 18.1534 7.63362 18.1534H13.338C12.622 19.3523 12.0446 20.6113 11.6052 21.9073H0.976578C0.437312 21.9073 0 22.3446 0 22.884C0 23.4234 0.437312 23.8606 0.976578 23.8606H11.0533C10.7718 25.0962 10.6103 26.3537 10.5686 27.6146H6.2501C5.71083 27.6146 5.27352 28.0519 5.27352 28.5913C5.27352 29.1307 5.71083 29.5679 6.2501 29.5679H10.5998C10.6822 30.8321 10.8854 32.0897 11.2095 33.3219H4.88289C4.34362 33.3219 3.90631 33.7592 3.90631 34.2986C3.90631 34.838 4.34362 35.2753 4.88289 35.2753H11.8328C12.7908 37.8098 14.288 40.1853 16.325 42.2225C19.5424 45.4402 23.8038 47.4581 28.324 47.9048C28.9691 47.9685 29.6147 48 30.2595 48C34.0703 48 37.8326 46.8971 41.0251 44.8179C41.477 44.5236 41.6048 43.9185 41.3105 43.4665C41.0162 43.0145 40.4112 42.8867 39.9592 43.1811C32.9711 47.732 23.6123 46.748 17.706 40.8413C10.776 33.9107 10.776 22.6338 17.706 15.7032C24.6359 8.77267 35.9118 8.77267 42.8419 15.7032C48.7403 21.6022 49.7296 30.9538 45.1941 37.9391C44.9003 38.3915 45.0289 38.9964 45.4812 39.2901C45.9337 39.5839 46.5384 39.4553 46.8321 39.0029C49.2554 35.2706 50.3462 30.7628 49.9036 26.3097ZM25.3763 3.32075C25.3763 2.56676 25.9896 1.95342 26.7435 1.95342H33.7748C34.5288 1.95342 35.1421 2.56676 35.1421 3.32075C35.1421 4.07473 34.5288 4.68807 33.7748 4.68807H33.5996H26.9186H26.7435C25.9896 4.68807 25.3763 4.07463 25.3763 3.32075ZM27.8952 8.69561V6.6414H32.6231V8.69209C31.0531 8.50536 29.4648 8.50653 27.8952 8.69561Z" fill="#7169AE"/>
<path d="M30.2741 13.1216C21.9206 13.1216 15.1245 19.9182 15.1245 28.2725C15.1245 36.6268 21.9206 43.4234 30.2741 43.4234C38.6275 43.4234 45.4236 36.6268 45.4236 28.2725C45.4236 19.9182 38.6275 13.1216 30.2741 13.1216ZM30.2741 41.4701C22.9975 41.4701 17.0777 35.5496 17.0777 28.2725C17.0777 20.9954 22.9975 15.0749 30.2741 15.0749C37.5506 15.0749 43.4704 20.9954 43.4704 28.2725C43.4704 35.5496 37.5506 41.4701 30.2741 41.4701Z" fill="#C0BCDB"/>
<path d="M36.4514 20.7128L31.6144 25.5501C31.2099 25.3501 30.7549 25.2371 30.274 25.2371C29.7929 25.2371 29.338 25.3501 28.9335 25.5501L26.7688 23.3851C26.3873 23.0038 25.7691 23.0038 25.3876 23.3851C25.0062 23.7665 25.0062 24.3849 25.3876 24.7663L27.5524 26.9313C27.3523 27.3358 27.2394 27.7909 27.2394 28.2719C27.2394 29.9453 28.6006 31.3068 30.274 31.3068C31.9473 31.3068 33.3086 29.9453 33.3086 28.2719C33.3086 27.7909 33.1956 27.3358 32.9956 26.9313L37.6906 22.2359L37.8325 22.094C38.2138 21.7126 38.2138 21.0942 37.8325 20.7128C37.4511 20.3314 36.833 20.3314 36.4514 20.7128ZM30.274 29.3535C29.6777 29.3535 29.1925 28.8683 29.1925 28.272C29.1925 27.6756 29.6777 27.1904 30.274 27.1904C30.8703 27.1904 31.3554 27.6756 31.3554 28.272C31.3554 28.8683 30.8703 29.3535 30.274 29.3535Z" fill="#7169AE"/>
<path d="M40.7153 27.3071H39.8105C39.2713 27.3071 38.834 27.7444 38.834 28.2837C38.834 28.8231 39.2713 29.2603 39.8105 29.2603H40.7153C41.2546 29.2603 41.6919 28.8231 41.6919 28.2837C41.6919 27.7444 41.2546 27.3071 40.7153 27.3071Z" fill="#7169AE"/>
<path d="M20.7372 27.2837H19.8325C19.2933 27.2837 18.856 27.7209 18.856 28.2604C18.856 28.7998 19.2933 29.237 19.8325 29.237H20.7372C21.2765 29.237 21.7138 28.7998 21.7138 28.2604C21.7138 27.7209 21.2765 27.2837 20.7372 27.2837Z" fill="#7169AE"/>
<path d="M30.2861 19.7106C30.8254 19.7106 31.2627 19.2734 31.2627 18.734V17.8292C31.2627 17.2898 30.8254 16.8525 30.2861 16.8525C29.7469 16.8525 29.3096 17.2898 29.3096 17.8292V18.734C29.3096 19.2734 29.7469 19.7106 30.2861 19.7106Z" fill="#7169AE"/>
<path d="M30.2622 36.833C29.7229 36.833 29.2856 37.2702 29.2856 37.8096V38.7144C29.2856 39.2537 29.7229 39.691 30.2622 39.691C30.8015 39.691 31.2388 39.2537 31.2388 38.7144V37.8096C31.2388 37.2702 30.8015 36.833 30.2622 36.833Z" fill="#7169AE"/>
</svg>
