<svg width="51" height="50" viewBox="0 0 51 50" fill="none" xmlns="http://www.w3.org/2000/svg">
<path d="M32.1382 48.3048L29.8107 40.6777H21.19L18.8624 48.3048H16.0176V49.9997H34.983V48.3048H32.1382Z" fill="#95D8D8"/>
<path d="M3.0862 6.77979C1.65774 6.77979 0.5 7.9179 0.5 9.32215V35.5934H50.5V9.32215C50.5 7.9179 49.3423 6.77979 47.9138 6.77979H3.0862Z" fill="#95D8D8"/>
<path d="M0.5 35.5933V38.1356C0.5 39.5399 1.65774 40.678 3.0862 40.678H47.9137C49.3422 40.678 50.4999 39.5399 50.4999 38.1356V35.5933H0.5Z" fill="#95D8D8"/>
<path d="M42.7413 0H8.25856C6.8301 0 5.67236 1.13812 5.67236 2.54237V33.0508H45.3275V2.54237C45.3275 1.13812 44.1697 0 42.7413 0Z" fill="#49A0A0"/>
<path d="M9.98289 2.54248H8.25879V4.23736H9.98289V2.54248Z" fill="#E0F4F4"/>
<path d="M13.4311 2.54248H11.707V4.23736H13.4311V2.54248Z" fill="#E0F4F4"/>
<path d="M16.8794 2.54248H15.1553V4.23736H16.8794V2.54248Z" fill="#E0F4F4"/>
<path d="M42.7415 5.93213H8.25879V7.62701H42.7415V5.93213Z" fill="#E0F4F4"/>
<path d="M9.9827 10.1694H16.8793C17.3551 10.1694 17.7414 10.5491 17.7414 11.0169V16.1016C17.7414 16.5694 17.3552 16.9491 16.8793 16.9491H9.9827C9.50686 16.9491 9.12061 16.5695 9.12061 16.1016V11.0169C9.12061 10.5491 9.50686 10.1694 9.9827 10.1694Z" fill="#E0F4F4"/>
<path d="M22.0515 10.1694H28.9481C29.424 10.1694 29.8102 10.5491 29.8102 11.0169V16.1016C29.8102 16.5694 29.4241 16.9491 28.9481 16.9491H22.0515C21.5757 16.9491 21.1895 16.5695 21.1895 16.1016V11.0169C21.1895 10.5491 21.5757 10.1694 22.0515 10.1694Z" fill="#E0F4F4"/>
<path d="M34.1209 10.1694H41.0175C41.4933 10.1694 41.8796 10.5491 41.8796 11.0169V16.1016C41.8796 16.5694 41.4934 16.9491 41.0175 16.9491H34.1209C33.645 16.9491 33.2588 16.5695 33.2588 16.1016V11.0169C33.2588 10.5491 33.645 10.1694 34.1209 10.1694Z" fill="#E0F4F4"/>
<path d="M9.9827 20.3389H16.8793C17.3551 20.3389 17.7414 20.7185 17.7414 21.1864V26.2711C17.7414 26.7389 17.3552 27.1186 16.8793 27.1186H9.9827C9.50686 27.1186 9.12061 26.7389 9.12061 26.2711V21.1864C9.12061 20.7185 9.50686 20.3389 9.9827 20.3389Z" fill="#E0F4F4"/>
<path d="M22.0515 20.3389H28.9481C29.424 20.3389 29.8102 20.7185 29.8102 21.1864V26.2711C29.8102 26.7389 29.4241 27.1186 28.9481 27.1186H22.0515C21.5757 27.1186 21.1895 26.7389 21.1895 26.2711V21.1864C21.1895 20.7185 21.5757 20.3389 22.0515 20.3389Z" fill="#E0F4F4"/>
<path d="M34.1209 20.3389H41.0175C41.4933 20.3389 41.8796 20.7185 41.8796 21.1864V26.2711C41.8796 26.7389 41.4934 27.1186 41.0175 27.1186H34.1209C33.645 27.1186 33.2588 26.7389 33.2588 26.2711V21.1864C33.2588 20.7185 33.645 20.3389 34.1209 20.3389Z" fill="#E0F4F4"/>
<path d="M30.5865 43.2201L29.8106 40.6777H21.1899L20.4141 43.2201H30.5865Z" fill="#49A0A0"/>
<path d="M45.3275 33.0508H5.67236V35.5931H45.3275V33.0508Z" fill="#49A0A0"/>
</svg>
