<svg width="544" height="119" viewBox="0 0 544 119" fill="none" xmlns="http://www.w3.org/2000/svg">
<path fill-rule="evenodd" clip-rule="evenodd" d="M527.169 56.659C537.135 51.8104 544 41.6216 544 29.8372C544 13.3586 530.577 0 514.019 0C507.623 0 501.695 1.99346 496.827 5.39017C492.061 3.7076 486.93 2.79179 481.584 2.79179C456.409 2.79179 436 23.1031 436 48.1584C436 73.2136 456.409 93.5249 481.584 93.5249C482.054 93.5249 482.521 93.5178 482.987 93.5038V93.5249H501.221V105.041L527.169 119V56.659ZM514.019 59.6745C518.736 59.6745 523.199 58.5904 527.169 56.659V48.1584C527.169 28.4234 514.507 11.6315 496.827 5.39017C489.094 10.7864 484.039 19.7243 484.039 29.8372C484.039 46.3159 497.462 59.6745 514.019 59.6745Z" fill="#346AB4"/>
<path fill-rule="evenodd" clip-rule="evenodd" d="M527.169 56.659C537.135 51.8104 544 41.6216 544 29.8372C544 13.3586 530.577 0 514.019 0C507.623 0 501.695 1.99346 496.827 5.39017C492.061 3.7076 486.93 2.79179 481.584 2.79179C456.409 2.79179 436 23.1031 436 48.1584C436 73.2136 456.409 93.5249 481.584 93.5249C482.054 93.5249 482.521 93.5178 482.987 93.5038V93.5249H501.221V105.041L527.169 119V56.659ZM514.019 59.6745C518.736 59.6745 523.199 58.5904 527.169 56.659V48.1584C527.169 28.4234 514.507 11.6315 496.827 5.39017C489.094 10.7864 484.039 19.7243 484.039 29.8372C484.039 46.3159 497.462 59.6745 514.019 59.6745Z" fill="url(#paint0_linear)"/>
<path fill-rule="evenodd" clip-rule="evenodd" d="M0 26.902V84.7461H24.7608C30.5925 84.7461 35.8267 83.5476 40.4086 81.0923C44.9964 78.6338 48.5429 75.128 51.007 70.6021C53.4891 66.0642 54.7028 60.8944 54.7028 55.1476C54.7028 46.0431 52.2298 38.864 46.9531 33.9927C41.7067 29.1494 34.025 26.902 24.2728 26.902H0ZM32.1207 49.077L32.1248 49.0854L32.1291 49.0937C33.0476 50.8899 33.5269 52.9439 33.5269 55.2979C33.5269 59.4643 32.4579 62.5566 30.5188 64.79L30.5179 64.791C28.6314 66.967 26.1087 68.0951 22.7335 68.0951H20.1622V43.5531H22.358C24.7476 43.5531 26.7209 44.0648 28.3492 45.0139C29.9854 45.9677 31.2361 47.3059 32.1207 49.077ZM59.1125 26.902V84.7461H97.8214V68.0951H79.2746V64.112H95.5312V47.461H79.2746V43.5531H96.5825V26.902H59.1125ZM138.312 64.9159L138.323 64.911C142.076 63.196 145.035 60.7469 147.115 57.542C149.217 54.3398 150.251 50.6887 150.251 46.6534C150.251 40.1856 148.363 35.0437 144.235 31.671C140.209 28.3616 134.111 26.902 126.354 26.902H102.306V84.7461H122.468V67.4195H125.453C130.254 67.4195 134.557 66.605 138.312 64.9159ZM127.903 43.6983C128.638 44.348 129.15 45.4012 129.15 47.2171C129.15 49.0892 128.662 50.1379 128.021 50.7447C127.36 51.3709 126.189 51.8584 124.139 51.8584H122.468V42.5007H123.575C125.788 42.5007 127.12 43.0071 127.903 43.6983ZM153.534 26.902V84.7461H192.243V68.0951H173.697V26.902H153.534ZM247.322 71.1663L247.324 71.1621C249.826 66.5573 251.056 61.3785 251.056 55.6737C251.056 50.0094 249.883 44.8782 247.49 40.3276C245.116 35.7387 241.707 32.1841 237.286 29.7116C232.906 27.2227 227.96 26 222.503 26C216.842 26 211.719 27.2742 207.186 29.8664C202.647 32.4369 199.119 36.0976 196.621 40.8035C194.126 45.5027 192.899 50.7624 192.899 56.5382C192.899 62.0751 194.119 67.1082 196.6 71.5893L196.602 71.5937C199.083 76.0481 202.563 79.532 207.013 82.0157L207.019 82.0191L207.025 82.0225C211.49 84.4728 216.425 85.6857 221.789 85.6857C227.281 85.6857 232.299 84.4339 236.798 81.899L236.806 81.8946C241.306 79.3316 244.82 75.7443 247.322 71.1663ZM227.695 46.7334C229.105 48.8507 229.917 51.9147 229.917 56.1248C229.917 58.771 229.53 60.9518 228.821 62.7169C228.106 64.4952 227.146 65.7508 225.992 66.5979C224.832 67.45 223.551 67.8695 222.09 67.8695C219.632 67.8695 217.786 66.9355 216.361 64.9962C214.917 62.9977 214.075 60.0424 214.075 55.8992C214.075 51.645 214.934 48.6474 216.395 46.6568C217.8 44.7424 219.707 43.7786 222.353 43.7786C224.617 43.7786 226.342 44.7011 227.695 46.7334ZM272.247 26.902L278.016 43.705L283.611 26.902H305.346L287.003 64.5112V84.7461H266.841V64.7207L249.115 26.902H272.247ZM344.482 92H370.537L363.033 84.7461H382.221L384.774 74.8237H397.758L400.123 84.7461H422L403.263 26.902H380.3L361.054 82.8323L354.194 76.2005C359.062 70.6441 361.471 63.7597 361.471 55.6737C361.471 50.0094 360.299 44.8782 357.906 40.3276C355.532 35.7387 352.123 32.1841 347.702 29.7116C343.321 27.2227 338.376 26 332.919 26C327.258 26 322.136 27.2739 317.603 29.8655C313.064 32.436 309.535 36.097 307.037 40.8035C304.542 45.5027 303.315 50.7624 303.315 56.5382C303.315 62.0751 304.535 67.1082 307.016 71.5893L307.018 71.5937C309.499 76.0481 312.979 79.532 317.429 82.0157L317.435 82.0191L317.441 82.0225C321.906 84.4728 326.841 85.6857 332.205 85.6857C334.129 85.6857 335.999 85.5287 337.811 85.2117L344.482 92ZM338.111 46.7334C339.521 48.8507 340.333 51.9147 340.333 56.1248C340.333 60.0412 339.489 62.9216 338.007 64.9615C336.556 66.9592 334.77 67.8695 332.506 67.8695C330.048 67.8695 328.202 66.9355 326.777 64.9962C325.333 62.9977 324.49 60.0424 324.49 55.8992C324.49 51.645 325.35 48.6474 326.811 46.6568C328.216 44.7424 330.122 43.7786 332.768 43.7786C335.033 43.7786 336.758 44.7011 338.111 46.7334ZM391.187 49.2518L393.77 59.3378H388.577C389.672 55.1346 390.543 51.7701 391.187 49.2518Z" fill="#122833"/>
<defs>
<linearGradient id="paint0_linear" x1="519.104" y1="22.8578" x2="445.3" y2="66.6145" gradientUnits="userSpaceOnUse">
<stop stop-color="#346AB4"/>
<stop offset="0.123496" stop-color="#346AB4"/>
<stop offset="0.125086" stop-color="#153889"/>
<stop offset="0.666428" stop-color="#523EB8"/>
<stop offset="0.826616" stop-color="#7941D6"/>
<stop offset="1" stop-color="#7E41DA"/>
</linearGradient>
</defs>
</svg>
