<svg width="754" height="820" viewBox="0 0 754 820" fill="none" xmlns="http://www.w3.org/2000/svg">
<path fill-rule="evenodd" clip-rule="evenodd" d="M636.494 390.423C706.075 357.013 754 286.805 754 205.601C754 92.0508 660.289 0 544.692 0C500.036 0 458.647 13.7365 424.664 37.1423C391.389 25.5482 355.568 19.2375 318.247 19.2375C142.484 19.2375 0 159.198 0 331.848C0 504.497 142.484 644.458 318.247 644.458C321.523 644.458 324.787 644.408 328.039 644.312V644.458H455.338V723.812L636.494 820V390.423ZM544.692 411.202C577.622 411.202 608.776 403.732 636.494 390.423V331.848C636.494 195.859 548.095 80.15 424.664 37.1423C370.677 74.3266 335.383 135.915 335.383 205.601C335.383 319.152 429.094 411.202 544.692 411.202Z" fill="#346AB4"/>
<path fill-rule="evenodd" clip-rule="evenodd" d="M636.494 390.423C706.075 357.013 754 286.805 754 205.601C754 92.0508 660.289 0 544.692 0C500.036 0 458.647 13.7365 424.664 37.1423C391.389 25.5482 355.568 19.2375 318.247 19.2375C142.484 19.2375 0 159.198 0 331.848C0 504.497 142.484 644.458 318.247 644.458C321.523 644.458 324.787 644.408 328.039 644.312V644.458H455.338V723.812L636.494 820V390.423ZM544.692 411.202C577.622 411.202 608.776 403.732 636.494 390.423V331.848C636.494 195.859 548.095 80.15 424.664 37.1423C370.677 74.3266 335.383 135.915 335.383 205.601C335.383 319.152 429.094 411.202 544.692 411.202Z" fill="url(#paint0_linear)"/>
<defs>
<linearGradient id="paint0_linear" x1="580.188" y1="157.507" x2="68.4581" y2="464.897" gradientUnits="userSpaceOnUse">
<stop stop-color="#346AB4"/>
<stop offset="0.123496" stop-color="#346AB4"/>
<stop offset="0.125086" stop-color="#153889"/>
<stop offset="0.666428" stop-color="#523EB8"/>
<stop offset="0.826616" stop-color="#7941D6"/>
<stop offset="1" stop-color="#7E41DA"/>
</linearGradient>
</defs>
</svg>
