<svg xmlns="http://www.w3.org/2000/svg" viewBox="0 0 512 512"><path d="m363.75 256c0 59.511719-48.238281 107.75-107.75 107.75s-107.75-48.238281-107.75-107.75c0-29.886719 12.164062-56.933594 31.824219-76.441406 19.078125-18.957032 45.210937-30.8125 74.109375-31.285156.605468-.023438 1.210937-.023438 1.816406-.023438 59.511719 0 107.75 48.238281 107.75 107.75zm0 0" fill="#fda736"/><path d="m363.75 256c0 59.511719-48.238281 107.75-107.75 107.75-15.300781 0-29.863281-3.191406-43.042969-8.949219 5.878907 1 11.921875 1.515625 18.089844 1.515625 59.507813 0 107.746094-48.238281 107.746094-107.746094 0-44.199218-26.605469-82.179687-64.683594-98.800781 50.890625 8.609375 89.640625 52.894531 89.640625 106.230469zm0 0" fill="#fd8f07"/><path d="m256.59375 162.023438c0 22.234374-18.03125 40.265624-40.269531 40.265624-15.949219 0-29.742188-9.277343-36.25-22.730468 19.078125-18.957032 45.210937-30.8125 74.109375-31.285156 1.5625 4.292968 2.410156 8.917968 2.410156 13.75zm0 0" fill="#fd7504"/><path d="m256.589844 162.019531c0 22.242188-18.03125 40.269531-40.261719 40.269531-3.359375 0-6.617187-.410156-9.738281-1.199218 17.519531-4.351563 30.511718-20.199219 30.511718-39.070313 0-4.097656-.613281-8.050781-1.761718-11.78125 6.109375-1.1875 12.410156-1.859375 18.839844-1.96875 1.570312 4.300781 2.410156 8.921875 2.410156 13.75zm0 0" fill="#fc5921"/><path d="m256 435.582031c-99.019531 0-179.582031-80.558593-179.582031-179.582031s80.5625-179.582031 179.582031-179.582031 179.582031 80.5625 179.582031 179.582031c0 70.863281-41.839843 135.285156-106.585937 164.125-3.785156 1.683594-8.21875-.015625-9.902344-3.800781-1.6875-3.785157.015625-8.21875 3.800781-9.902344 59.34375-26.433594 97.6875-85.476563 97.6875-150.421875 0-90.75-73.832031-164.582031-164.582031-164.582031s-164.582031 73.832031-164.582031 164.582031 73.832031 164.582031 164.582031 164.582031c6.871094 0 13.785156-.425781 20.558594-1.269531 4.101562-.519531 7.855468 2.402344 8.367187 6.515625.511719 4.109375-2.402343 7.855469-6.515625 8.367187-7.382812.917969-14.921875 1.386719-22.410156 1.386719zm0 0" fill="#7e18ea"/><path d="m256 512c-68.378906 0-132.667969-26.628906-181.019531-74.980469-48.351563-48.351562-74.980469-112.640625-74.980469-181.019531 0-58.066406 18.953125-112.8125 54.8125-158.320312 34.777344-44.132813 83.746094-76.019532 137.890625-89.792969 4.011719-1.023438 8.097656 1.402343 9.117187 5.421875 1.019532 4.011718-1.40625 8.09375-5.421874 9.117187-50.960938 12.960938-97.058594 42.984375-129.800782 84.539063-33.753906 42.835937-51.597656 94.371094-51.597656 149.035156 0 64.375 25.066406 124.894531 70.585938 170.414062 45.519531 45.519532 106.039062 70.585938 170.414062 70.585938s124.894531-25.066406 170.414062-70.585938c45.519532-45.519531 70.585938-106.039062 70.585938-170.414062s-25.066406-124.894531-70.585938-170.414062c-45.519531-45.519532-106.039062-70.585938-170.414062-70.585938-4.144531 0-7.5-3.359375-7.5-7.5s3.355469-7.5 7.5-7.5c68.378906 0 132.667969 26.628906 181.019531 74.980469 48.351563 48.351562 74.980469 112.640625 74.980469 181.019531s-26.628906 132.667969-74.980469 181.019531c-48.351562 48.351563-112.640625 74.980469-181.019531 74.980469zm0 0" fill="#2500ad"/><path d="m422.707031 148.253906c0 17.96875-14.566406 32.535156-32.535156 32.535156s-32.539063-14.566406-32.539063-32.535156 14.570313-32.535156 32.539063-32.535156 32.535156 14.566406 32.535156 32.535156zm0 0" fill="#6163aa"/><path d="m422.710938 148.25c0 17.96875-14.570313 32.539062-32.539063 32.539062-3.3125 0-6.492187-.488281-9.5-1.410156 13.328125-4.058594 23.039063-16.457031 23.039063-31.128906s-9.710938-27.058594-23.039063-31.121094c3.007813-.917968 6.1875-1.410156 9.5-1.410156 17.96875 0 32.539063 14.5625 32.539063 32.53125zm0 0" fill="#4e5093"/><path d="m133.808594 436.628906c0 24.625-19.960938 44.585938-44.585938 44.585938s-44.585937-19.960938-44.585937-44.585938 19.960937-44.589844 44.585937-44.589844 44.585938 19.964844 44.585938 44.589844zm0 0" fill="#2de0c7"/><path d="m133.808594 436.628906c0 24.621094-19.957032 44.589844-44.589844 44.589844-3.796875 0-7.480469-.46875-11-1.359375 19.3125-4.898437 33.589844-22.398437 33.589844-43.230469 0-20.839844-14.277344-38.328125-33.589844-43.230468 3.519531-.886719 7.203125-1.359376 11-1.359376 24.632812 0 44.589844 19.960938 44.589844 44.589844zm0 0" fill="#00c2cc"/><path d="m504.273438 367.144531c0 14.308594-11.601563 25.910157-25.910157 25.910157-14.308593 0-25.910156-11.601563-25.910156-25.910157 0-14.308593 11.601563-25.910156 25.910156-25.910156 14.308594 0 25.910157 11.601563 25.910157 25.910156zm0 0" fill="#d82fea"/><path d="m504.269531 367.140625c0 14.308594-11.597656 25.910156-25.910156 25.910156-2.960937 0-5.800781-.492187-8.4375-1.410156 10.167969-3.492187 17.476563-13.140625 17.476563-24.5s-7.308594-21.011719-17.476563-24.5c2.636719-.921875 5.476563-1.410156 8.4375-1.410156 14.3125 0 25.910156 11.597656 25.910156 25.910156zm0 0" fill="#b200bf"/><path d="m141.039062 50.105469c0 14.308593-11.597656 25.910156-25.90625 25.910156-14.3125 0-25.910156-11.601563-25.910156-25.910156 0-14.308594 11.597656-25.910157 25.910156-25.910157 14.308594 0 25.90625 11.601563 25.90625 25.910157zm0 0" fill="#edff85"/><path d="m141.039062 50.109375c0 14.300781-11.597656 25.902344-25.910156 25.902344-2.207031 0-4.347656-.28125-6.398437-.800781 11.21875-2.851563 19.507812-13.011719 19.507812-25.101563 0-12.097656-8.289062-22.257813-19.507812-25.109375 2.050781-.519531 4.191406-.800781 6.398437-.800781 14.3125 0 25.910156 11.601562 25.910156 25.910156zm0 0" fill="#c5ee09"/><path d="m261.136719 292.964844c0 13.273437-10.761719 24.03125-24.035157 24.03125-13.273437 0-24.035156-10.757813-24.035156-24.03125 0-13.277344 10.761719-24.035156 24.035156-24.035156 13.273438 0 24.035157 10.757812 24.035157 24.035156zm0 0" fill="#fd7504"/><path d="m261.140625 292.960938c0 13.277343-10.761719 24.039062-24.039063 24.039062-3.242187 0-6.332031-.640625-9.152343-1.808594 8.730469-3.601562 14.871093-12.203125 14.871093-22.230468 0-10.019532-6.140624-18.621094-14.871093-22.222657 2.820312-1.167969 5.910156-1.808593 9.152343-1.808593 13.277344 0 24.039063 10.761718 24.039063 24.03125zm0 0" fill="#fc5921"/><path d="m286.273438 194.699219c-.011719 0-.023438 0-.035157 0h-.109375c-4.144531-.019531-7.488281-3.390625-7.46875-7.535157.015625-4.128906 3.371094-7.464843 7.496094-7.464843h.035156.113282c4.140624.015625 7.484374 3.390625 7.46875 7.53125-.019532 4.128906-3.375 7.46875-7.5 7.46875zm0 0" fill="#fd8f07"/><path d="m297.394531 265.117188h-.113281c-4.140625 0-7.5-3.359376-7.5-7.5 0-4.140626 3.359375-7.5 7.5-7.5h.113281c4.144531 0 7.5 3.359374 7.5 7.5 0 4.140624-3.359375 7.5-7.5 7.5zm0 0" fill="#fd7504"/><path d="m286.21875 283.503906c-.015625 0-.023438 0-.035156 0h-.113282c-4.140624-.015625-7.484374-3.390625-7.46875-7.53125.019532-4.128906 3.371094-7.46875 7.5-7.46875h.03125.113282c4.144531.019532 7.488281 3.390625 7.46875 7.53125-.015625 4.132813-3.371094 7.46875-7.496094 7.46875zm0 0" fill="#fd8f07"/><path d="m302.234375 429.382812c-.011719 0-.019531 0-.03125 0h-.113281c-4.144532-.019531-7.484375-3.390624-7.46875-7.535156.019531-4.128906 3.371094-7.464844 7.5-7.464844h.03125.113281c4.144531.015626 7.484375 3.386719 7.46875 7.53125-.015625 4.128907-3.371094 7.46875-7.5 7.46875zm0 0" fill="#d82fea"/><path d="m225.289062 17.203125h-.113281c-4.140625 0-7.5-3.359375-7.5-7.5 0-4.144531 3.359375-7.5 7.5-7.5h.113281c4.144532 0 7.5 3.355469 7.5 7.5 0 4.140625-3.355468 7.5-7.5 7.5zm0 0" fill="#7e18ea"/></svg>