<svg xmlns="http://www.w3.org/2000/svg" viewBox="0 0 512 512"><path d="m332.628906 332.113281c1.417969 1.226563 3.164063 1.824219 4.902344 1.824219 2.101562 0 4.191406-.878906 5.675781-2.59375 18.082031-20.910156 28.039063-47.667969 28.039063-75.34375 0-23.636719-7.109375-46.359375-20.566406-65.710938-2.363282-3.398437-7.039063-4.238281-10.4375-1.875-3.402344 2.367188-4.242188 7.039063-1.878907 10.441407 11.699219 16.824219 17.882813 36.582031 17.882813 57.144531 0 24.074219-8.660156 47.347656-24.386719 65.53125-2.710937 3.136719-2.367187 7.871094.769531 10.582031zm0 0"/><path d="m318.976562 343.746094c-2.175781-3.523438-6.804687-4.609375-10.324218-2.429688-15.789063 9.765625-33.996094 14.929688-52.652344 14.929688-55.273438 0-100.246094-44.96875-100.246094-100.246094 0-24.386719 8.757813-46.761719 23.285156-64.15625 8.976563 11.21875 22.625 17.949219 37.289063 17.949219 26.339844 0 47.769531-21.429688 47.769531-47.769531 0-2.003907-.128906-3.996094-.378906-5.96875 19.609375 1.472656 38.050781 8.558593 53.722656 20.734374 3.269532 2.539063 7.980469 1.949219 10.523438-1.324218 2.539062-3.269532 1.949218-7.980469-1.324219-10.523438-20.367187-15.824218-44.796875-24.1875-70.640625-24.1875-63.546875 0-115.246094 51.699219-115.246094 115.246094s51.699219 115.246094 115.246094 115.246094c21.445312 0 42.378906-5.9375 60.542969-17.175782 3.523437-2.175781 4.613281-6.800781 2.433593-10.324218zm-102.648437-148.953125c-10.699219 0-20.621094-5.222657-26.726563-13.824219 15.949219-14.128906 36.410157-23.269531 58.925782-24.9375.363281 1.96875.570312 3.96875.570312 5.992188 0 18.070312-14.703125 32.769531-32.769531 32.769531zm0 0"/><path d="m430.207031 148.253906c0-22.078125-17.960937-40.039062-40.035156-40.039062-8.398437 0-16.195313 2.605468-22.640625 7.039062-31.597656-25.058594-71.09375-38.835937-111.53125-38.835937-99.019531 0-179.582031 80.558593-179.582031 179.582031s80.5625 179.582031 179.582031 179.582031c7.488281 0 15.027344-.464843 22.410156-1.386719 4.109375-.511718 7.027344-4.257812 6.515625-8.367187-.511719-4.113281-4.265625-7.03125-8.367187-6.515625-6.773438.839844-13.6875 1.269531-20.558594 1.269531-90.75 0-164.582031-73.832031-164.582031-164.582031s73.832031-164.582031 164.582031-164.582031c36.511719 0 72.183594 12.25 100.914062 34.566406-4.277343 6.371094-6.78125 14.035156-6.78125 22.269531 0 22.078125 17.960938 40.035156 40.039063 40.035156 5.144531 0 10.058594-.984374 14.582031-2.757812 10.359375 21.875 15.828125 46.09375 15.828125 70.46875 0 64.945312-38.347656 123.988281-97.6875 150.421875-3.785156 1.683594-5.484375 6.117187-3.800781 9.902344 1.242188 2.789062 3.984375 4.449219 6.855469 4.449219 1.019531 0 2.054687-.207032 3.046875-.652344 64.746094-28.835938 106.585937-93.257813 106.585937-164.121094 0-27.207031-6.230469-54.246094-18.054687-78.554688 7.796875-7.308593 12.679687-17.6875 12.679687-29.191406zm-65.074219 0c0-13.804687 11.230469-25.039062 25.039063-25.039062 13.804687 0 25.035156 11.234375 25.035156 25.039062 0 13.804688-11.230469 25.035156-25.035156 25.035156-13.808594 0-25.039063-11.230468-25.039063-25.035156zm0 0"/><path d="m497.867188 340.046875c9.371093-26.964844 14.132812-55.214844 14.132812-84.046875 0-68.378906-26.628906-132.667969-74.980469-181.019531-48.351562-48.351563-112.640625-74.980469-181.019531-74.980469-4.144531 0-7.5 3.359375-7.5 7.5s3.355469 7.5 7.5 7.5c64.375 0 124.894531 25.066406 170.414062 70.585938 45.519532 45.519531 70.585938 106.039062 70.585938 170.414062 0 26.828125-4.367188 53.117188-12.980469 78.222656-1.839843-.316406-3.726562-.488281-5.65625-.488281-18.421875 0-33.410156 14.988281-33.410156 33.410156 0 9.535157 4.023437 18.144531 10.453125 24.238281-45.019531 66.222657-119.214844 105.617188-199.40625 105.617188-43.171875 0-85.359375-11.5-122.300781-33.292969 4.824219-7.894531 7.609375-17.167969 7.609375-27.078125 0-28.722656-23.367188-52.085937-52.085938-52.085937-11.386718 0-21.921875 3.679687-30.5 9.902343-28.621094-40.664062-43.722656-88.371093-43.722656-138.445312 0-68.433594 29.113281-133.5625 79.96875-179.277344 5.609375 4.257813 12.59375 6.792969 20.164062 6.792969 18.421876 0 33.40625-14.988281 33.40625-33.410156 0-3.191407-.457031-6.277344-1.296874-9.199219 15.65625-7.933594 32.171874-14.160156 49.15625-18.480469 4.015624-1.023437 6.441406-5.105469 5.421874-9.117187-1.019531-4.015625-5.105468-6.441406-9.117187-5.421875-18.234375 4.640625-35.957031 11.339843-52.742187 19.894531-6.121094-6.800781-14.984376-11.085938-24.828126-11.085938-18.421874 0-33.410156 14.988282-33.410156 33.410157 0 5.433593 1.3125 10.5625 3.621094 15.101562-54.265625 48.574219-85.34375 117.917969-85.34375 190.792969 0 54 16.523438 105.421875 47.839844 149.046875-6.707032 8.765625-10.703125 19.714844-10.703125 31.582031 0 6.570313 1.222656 13 3.632812 19.105469 1.519531 3.855469 5.875 5.746094 9.726563 4.226563 3.855468-1.523438 5.746094-5.878907 4.226562-9.730469-1.71875-4.347657-2.585937-8.921875-2.585937-13.601563 0-20.449218 16.636719-37.085937 37.085937-37.085937 20.449219 0 37.085938 16.636719 37.085938 37.085937 0 20.449219-16.636719 37.085938-37.085938 37.085938-5.339844 0-10.503906-1.121094-15.355468-3.328125-3.769532-1.71875-8.21875-.054688-9.933594 3.714843-1.71875 3.769532-.054688 8.21875 3.714844 9.933594 6.816406 3.105469 14.074218 4.679688 21.574218 4.679688 13.347656 0 25.539063-5.054688 34.765625-13.34375 39.75 23.964844 85.339844 36.628906 132.011719 36.628906 85.503906 0 164.589844-42.160156 212.355469-112.980469 3.160156.996094 6.523437 1.535157 10.007812 1.535157 18.421875 0 33.410157-14.988282 33.410157-33.410157 0-11.148437-5.492188-21.027343-13.90625-27.097656zm-382.734376-308.351563c10.148438 0 18.40625 8.257813 18.40625 18.410157 0 10.152343-8.257812 18.410156-18.40625 18.410156-10.152343 0-18.410156-8.257813-18.410156-18.410156 0-10.152344 8.257813-18.410157 18.410156-18.410157zm363.230469 353.859376c-10.148437 0-18.410156-8.257813-18.410156-18.410157 0-10.152343 8.261719-18.410156 18.410156-18.410156 10.152344 0 18.410157 8.257813 18.410157 18.410156 0 10.152344-8.257813 18.410157-18.410157 18.410157zm0 0"/><path d="m237.101562 261.429688c-17.386718 0-31.535156 14.144531-31.535156 31.535156 0 17.386718 14.148438 31.53125 31.535156 31.53125 17.390626 0 31.535157-14.144532 31.535157-31.53125 0-17.390625-14.148438-31.535156-31.535157-31.535156zm0 48.066406c-9.117187 0-16.535156-7.414063-16.535156-16.53125 0-9.121094 7.417969-16.535156 16.535156-16.535156 9.117188 0 16.535157 7.414062 16.535157 16.535156 0 9.117187-7.417969 16.53125-16.535157 16.53125zm0 0"/><path d="m286.128906 194.699219h.109375.035157c4.125 0 7.480468-3.339844 7.5-7.46875.015624-4.140625-3.328126-7.515625-7.46875-7.53125h-.113282c-.011718 0-.019531 0-.035156 0-4.125 0-7.480469 3.335937-7.496094 7.464843-.019531 4.144532 3.324219 7.515626 7.46875 7.535157zm0 0"/><path d="m297.394531 265.117188c4.144531 0 7.5-3.359376 7.5-7.5 0-4.140626-3.355469-7.5-7.5-7.5h-.113281c-4.140625 0-7.5 3.359374-7.5 7.5 0 4.140624 3.359375 7.5 7.5 7.5zm0 0"/><path d="m286.070312 283.503906h.113282.03125c4.128906 0 7.480468-3.335937 7.5-7.46875.019531-4.140625-3.324219-7.511718-7.46875-7.53125h-.113282c-.011718 0-.019531 0-.03125 0-4.128906 0-7.484374 3.339844-7.5 7.46875-.015624 4.140625 3.328126 7.515625 7.46875 7.53125zm0 0"/><path d="m302.152344 414.378906c-.011719 0-.019532 0-.03125 0-4.128906 0-7.480469 3.339844-7.5 7.46875-.019532 4.140625 3.324218 7.515625 7.46875 7.53125h.113281.03125c4.128906 0 7.480469-3.335937 7.5-7.46875.019531-4.140625-3.324219-7.511718-7.46875-7.53125zm0 0"/><path d="m225.175781 17.203125h.113281c4.144532 0 7.5-3.359375 7.5-7.5 0-4.144531-3.355468-7.5-7.5-7.5h-.113281c-4.140625 0-7.5 3.355469-7.5 7.5 0 4.140625 3.359375 7.5 7.5 7.5zm0 0"/></svg>