<svg width="340" height="315" viewBox="0 0 340 315" fill="none" xmlns="http://www.w3.org/2000/svg">
<path d="M338.48 176.35L320.7 121.72C320.606 121.217 320.462 120.725 320.27 120.25L284.6 10.45C283.65 7.61716 281.829 5.1569 279.397 3.42035C276.966 1.6838 274.048 0.759715 271.06 0.77999C268.081 0.761924 265.174 1.69893 262.766 3.4536C260.358 5.20828 258.575 7.6883 257.68 10.53L223.68 115.16H116.37L82.32 10.53C81.4276 7.69812 79.6542 5.22519 77.2583 3.47144C74.8624 1.71769 71.9692 0.77475 69 0.77999H68.92C65.9293 0.78051 63.0149 1.72397 60.5912 3.47619C58.1675 5.22841 56.358 7.70017 55.42 10.54L19.72 120.47C19.72 120.57 19.64 120.65 19.61 120.75L1.51001 176.36C0.18 180.438 0.176849 184.833 1.50103 188.914C2.8252 192.994 5.40856 196.55 8.88002 199.07L165.26 312.7C166.636 313.696 168.294 314.228 169.993 314.219C171.692 314.21 173.344 313.661 174.71 312.65L331.12 199.07C334.593 196.549 337.177 192.991 338.499 188.908C339.822 184.826 339.815 180.429 338.48 176.35ZM104.73 131.22L148.32 265.38L43.68 131.22H104.73ZM191.73 265.41L233.53 136.79L235.33 131.22H296.43L201.76 252.5L191.73 265.41ZM271.2 20.83L301.83 115.16H240.52L271.2 20.83ZM218.49 131.16L188.12 224.62L170 280.28L121.58 131.16H218.49ZM68.85 20.83L99.54 115.16H38.27L68.85 20.83ZM18.29 186.13C17.5524 185.594 17.0039 184.837 16.7236 183.969C16.4433 183.101 16.4455 182.167 16.73 181.3L30.17 140L128.74 266.37L18.29 186.13ZM321.72 186.13L211.26 266.34L211.63 265.86L309.83 140L323.27 181.28C323.558 182.147 323.563 183.083 323.284 183.953C323.006 184.823 322.458 185.582 321.72 186.12" fill="black"/>
</svg>
