<svg xmlns="http://www.w3.org/2000/svg" viewBox="0 0 615.8 156.02"><defs><style>.cls-1{fill:#121726;}.cls-2{fill:#435fe4;}</style></defs><title>stagydev_logo</title><g id="Layer_2" data-name="Layer 2"><g id="Layer_1-2" data-name="Layer 1"><path class="cls-1" d="M209.84,118c-21.28,0-37.82-11.27-38.91-29.46h20.72c1.64,9.82,9.82,13.46,18.73,13.46,8.73,0,14.73-3.45,14.73-9.64s-4-9.63-13.45-12l-14.92-4c-15.63-4-23.27-14.18-23.27-27.46,0-15.27,13.46-25.45,33.82-25.45,19.64,0,33.28,10.91,34.73,27.27H222c-1.82-7.64-7.82-11.27-14.91-11.27-7.64,0-13.27,3.46-13.27,9.27s4.54,8.91,12.18,10.91l15.27,4c16.37,4.19,24.19,13.64,24.19,27.46C245.48,108.74,230.2,118,209.84,118Z"/><path class="cls-1" d="M294.2,117.1c-17.46,0-31.09-9.63-31.09-30.18V43.09H244.2V25.28h18.91V0h20V25.28h26V43.09h-26V83.65c0,11.27,4.91,15.45,15.27,15.45a32.33,32.33,0,0,0,10.73-1.82V115.1A48.23,48.23,0,0,1,294.2,117.1Z"/><path class="cls-1" d="M357.07,23.46c13.09,0,24,6.73,29.1,14V25.28h20V116.2h-20V104c-5.1,7.27-16,14-29.1,14-24.91,0-43.82-21.27-43.82-47.27S332.16,23.46,357.07,23.46Zm3.64,18.18c-16.19,0-27.1,12.73-27.1,29.1s10.91,29.09,27.1,29.09S387.8,87.1,387.8,70.74,376.89,41.64,360.71,41.64Z"/><path class="cls-1" d="M438.57,123.29c3.63,10.72,12.36,15.63,25.09,15.63,13.64,0,24.73-9.09,24.73-26.73V101.46c-5.46,8-16.55,14.19-29.09,14.19-24.55,0-43.64-20.37-43.64-46.19,0-25.64,19.09-46,43.64-46,12.54,0,23.63,6,29.09,14V25.28h20v85.28c0,31.64-20.91,45.46-45.28,45.46-24.91,0-41.82-13.82-44.18-32.73Zm24.36-81.65c-15.45,0-27.09,11.64-27.09,27.82s11.64,27.82,27.09,27.82S490,85.65,490,69.46,478.39,41.64,462.93,41.64Z"/><path class="cls-1" d="M535.43,154.2l19.46-42.92-39.1-86h22l28,64.36,27.82-64.36H615.8L557.43,154.2Z"/><path class="cls-2" d="M0,60.34V81.12A9.87,9.87,0,0,0,9.87,91H14.7a17.23,17.23,0,0,1-.35-3.47V53.94a17.23,17.23,0,0,1,.35-3.47H9.87A9.87,9.87,0,0,0,0,60.34Z"/><path class="cls-2" d="M18.29,53.94V87.52A13.68,13.68,0,0,0,32,101.2H39.7a18.86,18.86,0,0,1-.78-5.35V45.61a18.86,18.86,0,0,1,.78-5.35H32A13.68,13.68,0,0,0,18.29,53.94Z"/><path class="cls-2" d="M42.86,45.61V95.85a15.09,15.09,0,0,0,15.08,15.09H70.51a17.45,17.45,0,0,1-1.24-6.44V37a17.45,17.45,0,0,1,1.24-6.44H57.94A15.09,15.09,0,0,0,42.86,45.61Z"/><rect class="cls-1" x="73.21" y="23.44" width="86.26" height="94.57" rx="13.51"/></g></g></svg>