<svg width="16" height="15" viewBox="0 0 16 15" fill="none" xmlns="http://www.w3.org/2000/svg">
<path d="M14.845 0.114894C14.1681 -0.297705 13.4131 0.498022 12.9705 0.969563C11.9553 2.08947 11.0961 3.38621 10.1329 4.56507C9.06548 5.8618 8.0762 7.15854 6.98278 8.42586C6.35798 9.13317 5.6811 9.89943 5.26456 10.7836C4.32735 9.75202 3.52031 8.63211 2.47896 7.71855C1.72398 7.07018 0.474367 6.59864 0.5004 8.16062C0.552468 10.1942 2.14052 12.3751 3.31204 13.7602C3.80668 14.3496 4.45752 14.9685 5.2125 14.998C6.12367 15.0569 7.06089 13.8191 7.60759 13.1413C8.57088 11.9624 9.35189 10.6362 10.237 9.42789C11.3825 7.83643 12.554 6.2744 13.6734 4.65348C14.3763 3.65145 16.5892 1.17581 14.845 0.114894ZM1.64584 8.04273C1.61981 8.04273 1.59377 8.04273 1.5417 8.07215C1.43757 8.04273 1.35947 8.01321 1.25533 7.95427C1.33344 7.89533 1.4636 7.9248 1.64584 8.04273Z" fill="#52499C"/>
</svg>
