<svg width="531" height="583" viewBox="0 0 531 583" fill="none" xmlns="http://www.w3.org/2000/svg">
<path fill-rule="evenodd" clip-rule="evenodd" d="M447.903 277.582C496.813 253.827 530.5 203.911 530.5 146.177C530.5 65.4459 464.629 0 383.373 0C351.984 0 322.891 9.76628 299.004 26.4073C275.615 18.1641 250.435 13.6774 224.201 13.6774C100.655 13.6774 0.5 113.186 0.5 235.935C0.5 358.685 100.655 458.194 224.201 458.194C226.504 458.194 228.798 458.159 231.084 458.09V458.194H320.565V514.613L447.903 583V277.582ZM383.373 292.355C406.521 292.355 428.419 287.044 447.903 277.582V235.935C447.903 139.251 385.766 56.9847 299.004 26.4073C261.056 52.8444 236.247 96.6324 236.247 146.177C236.247 226.909 302.118 292.355 383.373 292.355Z" fill="#E4E3EE"/>
</svg>
