<svg width="161" height="35" viewBox="0 0 161 35" fill="none" xmlns="http://www.w3.org/2000/svg">
<path fill-rule="evenodd" clip-rule="evenodd" d="M155.55 16.6644C158.482 15.2384 160.501 12.2417 160.501 8.77567C160.501 3.929 156.553 0 151.683 0C149.802 0 148.058 0.586312 146.626 1.58535C145.224 1.09047 143.715 0.821115 142.143 0.821115C134.738 0.821115 128.736 6.79505 128.736 14.1642C128.736 21.5334 134.738 27.5074 142.143 27.5074C142.281 27.5074 142.419 27.5053 142.556 27.5011V27.5074H147.918V30.8945L155.55 35V16.6644ZM151.683 17.5513C153.07 17.5513 154.383 17.2325 155.55 16.6644V14.1642C155.55 8.35983 151.826 3.42104 146.626 1.58535C144.352 3.17248 142.865 5.80126 142.865 8.77567C142.865 13.6223 146.813 17.5513 151.683 17.5513Z" fill="#346AB4"/>
<path fill-rule="evenodd" clip-rule="evenodd" d="M155.55 16.6644C158.482 15.2384 160.501 12.2417 160.501 8.77567C160.501 3.929 156.553 0 151.683 0C149.802 0 148.058 0.586312 146.626 1.58535C145.224 1.09047 143.715 0.821115 142.143 0.821115C134.738 0.821115 128.736 6.79505 128.736 14.1642C128.736 21.5334 134.738 27.5074 142.143 27.5074C142.281 27.5074 142.419 27.5053 142.556 27.5011V27.5074H147.918V30.8945L155.55 35V16.6644ZM151.683 17.5513C153.07 17.5513 154.383 17.2325 155.55 16.6644V14.1642C155.55 8.35983 151.826 3.42104 146.626 1.58535C144.352 3.17248 142.865 5.80126 142.865 8.77567C142.865 13.6223 146.813 17.5513 151.683 17.5513Z" fill="url(#paint0_linear)"/>
<path fill-rule="evenodd" clip-rule="evenodd" d="M0.5 7.91228V24.9253H7.78261C9.49781 24.9253 11.0373 24.5728 12.3849 23.8506C13.7343 23.1275 14.7773 22.0964 15.5021 20.7653C16.2321 19.4306 16.5891 17.91 16.5891 16.2198C16.5891 13.542 15.8617 11.4305 14.3098 9.99778C12.7667 8.57327 10.5074 7.91228 7.63905 7.91228H0.5ZM9.94726 14.4343L9.94849 14.4368L9.94974 14.4392C10.2199 14.9675 10.3609 15.5717 10.3609 16.264C10.3609 17.4894 10.0465 18.3989 9.47613 19.0558L9.47586 19.0561C8.92101 19.6961 8.17903 20.0279 7.18632 20.0279H6.43005V12.8097H7.07589C7.77871 12.8097 8.35911 12.9602 8.83799 13.2393C9.31923 13.5198 9.68709 13.9134 9.94726 14.4343ZM17.886 7.91228V24.9253H29.271V20.0279H23.8161V18.8564H28.5975V13.959H23.8161V12.8097H28.9066V7.91228H17.886ZM41.1801 19.0928L41.1833 19.0914C42.287 18.587 43.1575 17.8667 43.769 16.924C44.3875 15.9822 44.6915 14.9083 44.6915 13.7215C44.6915 11.8192 44.1364 10.3069 42.9221 9.31491C41.7379 8.34155 39.9443 7.91228 37.6629 7.91228H30.5901V24.9253H36.5202V19.8292H37.3979C38.8101 19.8292 40.0755 19.5896 41.1801 19.0928ZM38.1185 12.8524C38.3348 13.0434 38.4854 13.3532 38.4854 13.8873C38.4854 14.4379 38.3417 14.7464 38.1533 14.9248C37.9589 15.109 37.6144 15.2524 37.0114 15.2524H36.5202V12.5001H36.8458C37.4965 12.5001 37.8883 12.6491 38.1185 12.8524ZM45.6572 7.91228V24.9253H57.0422V20.0279H51.5873V7.91228H45.6572ZM73.2419 20.9312L73.2425 20.9299C73.9783 19.5756 74.3399 18.0524 74.3399 16.3746C74.3399 14.7086 73.995 13.1994 73.2913 11.861C72.593 10.5113 71.5905 9.46583 70.2901 8.73861C69.0017 8.0066 67.5473 7.64697 65.942 7.64697C64.2771 7.64697 62.7703 8.02172 61.4371 8.78414C60.1021 9.54017 59.0645 10.6169 58.3297 12.001C57.596 13.3831 57.235 14.93 57.235 16.6288C57.235 18.2573 57.5939 19.7376 58.3236 21.0556L58.3243 21.0569C59.054 22.367 60.0775 23.3917 61.3862 24.1222L61.3881 24.1232L61.3899 24.1242C62.7031 24.8449 64.1545 25.2016 65.7322 25.2016C67.3475 25.2016 68.8234 24.8334 70.1465 24.0879L70.1488 24.0866C71.4726 23.3327 72.5061 22.2777 73.2419 20.9312ZM67.4693 13.745C67.884 14.3678 68.1228 15.269 68.1228 16.5072C68.1228 17.2855 68.009 17.9269 67.8003 18.4461C67.5901 18.9691 67.3078 19.3384 66.9684 19.5875C66.627 19.8382 66.2504 19.9616 65.8206 19.9616C65.0977 19.9616 64.5548 19.6868 64.1357 19.1165C63.711 18.5287 63.4632 17.6595 63.4632 16.4409C63.4632 15.1896 63.716 14.308 64.1457 13.7225C64.5589 13.1595 65.1196 12.876 65.8979 12.876C66.5638 12.876 67.0712 13.1473 67.4693 13.745ZM80.5728 7.91228L82.2694 12.8543L83.915 7.91228H90.3077L84.9128 18.9738V24.9253H78.9828V19.0354L73.7693 7.91228H80.5728ZM101.818 27.0588H109.481L107.275 24.9253H112.918L113.669 22.0069H117.488L118.183 24.9253H124.618L119.107 7.91228H112.353L106.692 24.3624L104.675 22.4118C106.107 20.7776 106.815 18.7528 106.815 16.3746C106.815 14.7086 106.47 13.1994 105.767 11.861C105.068 10.5113 104.066 9.46583 102.765 8.73861C101.477 8.0066 100.023 7.64697 98.4173 7.64697C96.7526 7.64697 95.2459 8.02164 93.9128 8.78388C92.5776 9.53992 91.5398 10.6167 90.805 12.001C90.0713 13.3831 89.7102 14.93 89.7102 16.6288C89.7102 18.2573 90.0692 19.7376 90.7988 21.0556L90.7995 21.0569C91.5293 22.367 92.5528 23.3917 93.8615 24.1222L93.8633 24.1232L93.8652 24.1242C95.1784 24.8449 96.6298 25.2016 98.2075 25.2016C98.7734 25.2016 99.3232 25.1554 99.8563 25.0622L101.818 27.0588ZM99.9445 13.745C100.359 14.3678 100.598 15.269 100.598 16.5072C100.598 17.6591 100.35 18.5063 99.9139 19.1062C99.487 19.6938 98.9618 19.9616 98.2958 19.9616C97.573 19.9616 97.0301 19.6868 96.6109 19.1165C96.1863 18.5287 95.9384 17.6595 95.9384 16.4409C95.9384 15.1896 96.1912 14.308 96.6209 13.7225C97.0342 13.1595 97.5949 12.876 98.3731 12.876C99.0391 12.876 99.5465 13.1473 99.9445 13.745ZM115.555 14.4857L116.315 17.4522H114.787C115.109 16.216 115.366 15.2264 115.555 14.4857Z" fill="#122833"/>
<defs>
<linearGradient id="paint0_linear" x1="153.178" y1="6.72288" x2="131.471" y2="19.5925" gradientUnits="userSpaceOnUse">
<stop stop-color="#346AB4"/>
<stop offset="0.123496" stop-color="#346AB4"/>
<stop offset="0.125086" stop-color="#153889"/>
<stop offset="0.666428" stop-color="#523EB8"/>
<stop offset="0.826616" stop-color="#7941D6"/>
<stop offset="1" stop-color="#7E41DA"/>
</linearGradient>
</defs>
</svg>
