<svg width="43" height="60" viewBox="0 0 43 60" fill="none" xmlns="http://www.w3.org/2000/svg">
<path d="M39.6106 26.3609H39.5235C37.8535 26.3609 36.4478 27.7803 36.4478 29.6047V32.1334C36.4478 32.6371 36.0388 33.0461 35.5351 33.0461C35.0309 33.0461 34.6224 32.6371 34.6224 32.1334V27.4641C34.6224 25.6397 33.2977 24.1556 31.6282 24.1556C29.9495 24.1556 28.6248 25.6397 28.6248 27.4641V32.413C28.6248 32.9172 28.2158 33.3257 27.7121 33.3257C27.2079 33.3257 26.7994 32.9172 26.7994 32.413V26.1052C26.7994 24.2814 25.4222 22.8405 23.7527 22.8405H23.66C22.0323 22.8405 20.6714 24.207 20.6714 25.9677V33.0705C20.6714 33.5748 20.2624 33.9832 19.7587 33.9832C19.2545 33.9832 18.846 33.5748 18.846 33.0705V26.1735C18.846 26.1511 18.8435 26.1276 18.8435 26.1047C18.8435 26.0487 18.846 25.9927 18.846 25.9371V9.81188C18.846 7.98753 17.4694 6.50391 15.8004 6.50391C14.1308 6.50391 12.7547 7.98702 12.7532 9.80984L12.7348 36.5501C12.7343 36.9357 12.4924 37.2795 12.1293 37.4093C11.7666 37.5392 11.3612 37.4272 11.1167 37.1292L7.92388 33.2427C7.08199 32.1879 5.83928 31.5309 4.49317 31.4285C3.17559 31.3414 1.88092 31.8059 0.919343 32.711C0.908138 32.7212 0.896424 32.7334 0.884201 32.7436L0.259277 33.2661L11.3291 54.5395C13.0766 57.8974 16.381 59.9998 19.9518 59.9998H32.7482C38.1937 59.9998 42.6283 55.2087 42.6339 49.3399C42.6369 46.2321 42.64 43.901 42.6425 42.0232C42.6492 37.0034 42.6512 35.1572 42.6385 29.6276C42.6344 27.8083 41.2761 26.3609 39.6106 26.3609V26.3609Z" fill="#87A1E6"/>
<path d="M7.49624 10.1312C8.00046 10.1312 8.40893 9.72273 8.40893 9.21851C8.39823 6.58232 9.79832 4.1412 12.0795 2.82005C14.3607 1.4989 17.1747 1.4989 19.4559 2.82005C21.7371 4.1412 23.1372 6.58232 23.126 9.21851C23.126 9.72273 23.5349 10.1312 24.0386 10.1312C24.5429 10.1312 24.9513 9.72273 24.9513 9.21851C24.9641 5.92939 23.2161 2.88422 20.3696 1.2361C17.523 -0.412032 14.0124 -0.412032 11.1658 1.2361C8.31929 2.88422 6.57134 5.92939 6.58356 9.21851C6.58356 9.72273 6.99254 10.1312 7.49624 10.1312Z" fill="#87A1E6"/>
</svg>
