<svg width="60" height="60" viewBox="0 0 60 60" fill="none" xmlns="http://www.w3.org/2000/svg">
<path d="M52.8571 28.5714H48.5714V17.1429C48.5714 14 46 11.4286 42.8571 11.4286H31.4286V7.14286C31.4286 3.14286 28.2857 0 24.2857 0C20.2857 0 17.1429 3.14286 17.1429 7.14286V11.4286H5.71429C2.57143 11.4286 0 14 0 17.1429V28H4.28571C8.57143 28 12 31.4286 12 35.7143C12 40 8.57143 43.4286 4.28571 43.4286H0V54.2857C0 57.4286 2.57143 60 5.71429 60H16.5714V55.7143C16.5714 51.4286 20 48 24.2857 48C28.5714 48 32 51.4286 32 55.7143V60H42.8571C46 60 48.5714 57.4286 48.5714 54.2857V42.8571H52.8571C56.8571 42.8571 60 39.7143 60 35.7143C60 31.7143 56.8571 28.5714 52.8571 28.5714Z" fill="#95D8D8"/>
</svg>
