<svg width="61" height="60" viewBox="0 0 61 60" fill="none" xmlns="http://www.w3.org/2000/svg">
<path d="M0.5 24.0077V35.9904C0.5 36.981 0.814 37.8901 1.335 38.6427H59.664C60.186 37.8911 60.5 36.981 60.5 35.9915V24.0077C60.5 23.0172 60.186 22.108 59.665 21.3555H1.335C0.814 22.108 0.5 23.0182 0.5 24.0077ZM52.5 30.5081C53.052 30.5081 53.5 30.9636 53.5 31.525C53.5 32.0864 53.052 32.542 52.5 32.542C51.948 32.542 51.5 32.0864 51.5 31.525C51.5 30.9636 51.948 30.5081 52.5 30.5081ZM50.5 27.4572C51.052 27.4572 51.5 27.9128 51.5 28.4741C51.5 29.0355 51.052 29.4911 50.5 29.4911C49.948 29.4911 49.5 29.0355 49.5 28.4741C49.5 27.9128 49.948 27.4572 50.5 27.4572ZM48.5 30.5081C49.052 30.5081 49.5 30.9636 49.5 31.525C49.5 32.0864 49.052 32.542 48.5 32.542C47.948 32.542 47.5 32.0864 47.5 31.525C47.5 30.9636 47.948 30.5081 48.5 30.5081ZM46.5 27.4572C47.052 27.4572 47.5 27.9128 47.5 28.4741C47.5 29.0355 47.052 29.4911 46.5 29.4911C45.948 29.4911 45.5 29.0355 45.5 28.4741C45.5 27.9128 45.948 27.4572 46.5 27.4572ZM44.5 30.5081C45.052 30.5081 45.5 30.9636 45.5 31.525C45.5 32.0864 45.052 32.542 44.5 32.542C43.948 32.542 43.5 32.0864 43.5 31.525C43.5 30.9636 43.948 30.5081 44.5 30.5081ZM42.5 27.4572C43.052 27.4572 43.5 27.9128 43.5 28.4741C43.5 29.0355 43.052 29.4911 42.5 29.4911C41.948 29.4911 41.5 29.0355 41.5 28.4741C41.5 27.9128 41.948 27.4572 42.5 27.4572ZM40.5 30.5081C41.052 30.5081 41.5 30.9636 41.5 31.525C41.5 32.0864 41.052 32.542 40.5 32.542C39.948 32.542 39.5 32.0864 39.5 31.525C39.5 30.9636 39.948 30.5081 40.5 30.5081ZM38.5 27.4572C39.052 27.4572 39.5 27.9128 39.5 28.4741C39.5 29.0355 39.052 29.4911 38.5 29.4911C37.948 29.4911 37.5 29.0355 37.5 28.4741C37.5 27.9128 37.948 27.4572 38.5 27.4572ZM36.5 30.5081C37.052 30.5081 37.5 30.9636 37.5 31.525C37.5 32.0864 37.052 32.542 36.5 32.542C35.948 32.542 35.5 32.0864 35.5 31.525C35.5 30.9636 35.948 30.5081 36.5 30.5081ZM34.5 27.4572C35.052 27.4572 35.5 27.9128 35.5 28.4741C35.5 29.0355 35.052 29.4911 34.5 29.4911C33.948 29.4911 33.5 29.0355 33.5 28.4741C33.5 27.9128 33.948 27.4572 34.5 27.4572ZM11 25.4233C13.481 25.4233 15.5 27.4765 15.5 29.9996C15.5 32.5226 13.481 34.5759 11 34.5759C8.519 34.5759 6.5 32.5226 6.5 29.9996C6.5 27.4765 8.519 25.4233 11 25.4233Z" fill="#FAB4BA"/>
<path d="M59.665 19.3216C60.186 18.5691 60.5 17.6589 60.5 16.6694V4.68563C60.5 2.10155 58.433 -0.000488281 55.892 -0.000488281H5.108C2.567 -0.000488281 0.5 2.10155 0.5 4.68563V16.6684C0.5 17.6589 0.814 18.5681 1.335 19.3206H59.665V19.3216ZM52.5 11.186C53.052 11.186 53.5 11.6416 53.5 12.203C53.5 12.7643 53.052 13.2199 52.5 13.2199C51.948 13.2199 51.5 12.7643 51.5 12.203C51.5 11.6416 51.948 11.186 52.5 11.186ZM50.5 8.13514C51.052 8.13514 51.5 8.59074 51.5 9.1521C51.5 9.71345 51.052 10.169 50.5 10.169C49.948 10.169 49.5 9.71345 49.5 9.1521C49.5 8.59074 49.948 8.13514 50.5 8.13514ZM48.5 11.186C49.052 11.186 49.5 11.6416 49.5 12.203C49.5 12.7643 49.052 13.2199 48.5 13.2199C47.948 13.2199 47.5 12.7643 47.5 12.203C47.5 11.6416 47.948 11.186 48.5 11.186ZM46.5 8.13514C47.052 8.13514 47.5 8.59074 47.5 9.1521C47.5 9.71345 47.052 10.169 46.5 10.169C45.948 10.169 45.5 9.71345 45.5 9.1521C45.5 8.59074 45.948 8.13514 46.5 8.13514ZM44.5 11.186C45.052 11.186 45.5 11.6416 45.5 12.203C45.5 12.7643 45.052 13.2199 44.5 13.2199C43.948 13.2199 43.5 12.7643 43.5 12.203C43.5 11.6416 43.948 11.186 44.5 11.186ZM42.5 8.13514C43.052 8.13514 43.5 8.59074 43.5 9.1521C43.5 9.71345 43.052 10.169 42.5 10.169C41.948 10.169 41.5 9.71345 41.5 9.1521C41.5 8.59074 41.948 8.13514 42.5 8.13514ZM40.5 11.186C41.052 11.186 41.5 11.6416 41.5 12.203C41.5 12.7643 41.052 13.2199 40.5 13.2199C39.948 13.2199 39.5 12.7643 39.5 12.203C39.5 11.6416 39.948 11.186 40.5 11.186ZM38.5 8.13514C39.052 8.13514 39.5 8.59074 39.5 9.1521C39.5 9.71345 39.052 10.169 38.5 10.169C37.948 10.169 37.5 9.71345 37.5 9.1521C37.5 8.59074 37.948 8.13514 38.5 8.13514ZM36.5 11.186C37.052 11.186 37.5 11.6416 37.5 12.203C37.5 12.7643 37.052 13.2199 36.5 13.2199C35.948 13.2199 35.5 12.7643 35.5 12.203C35.5 11.6416 35.948 11.186 36.5 11.186ZM34.5 8.13514C35.052 8.13514 35.5 8.59074 35.5 9.1521C35.5 9.71345 35.052 10.169 34.5 10.169C33.948 10.169 33.5 9.71345 33.5 9.1521C33.5 8.59074 33.948 8.13514 34.5 8.13514ZM11 6.10123C13.481 6.10123 15.5 8.15446 15.5 10.6775C15.5 13.2006 13.481 15.2538 11 15.2538C8.519 15.2538 6.5 13.2006 6.5 10.6775C6.5 8.15446 8.519 6.10123 11 6.10123Z" fill="#FAB4BA"/>
<path d="M1.335 40.6777C0.814 41.4303 0.5 42.3405 0.5 43.33V55.3127C0.5 57.8978 2.567 59.9999 5.108 59.9999H55.891C58.432 59.9999 60.499 57.8978 60.499 55.3137V43.33C60.499 42.3394 60.185 41.4303 59.664 40.6777H1.335ZM11 53.8981C8.519 53.8981 6.5 51.8449 6.5 49.3218C6.5 46.7988 8.519 44.7455 11 44.7455C13.481 44.7455 15.5 46.7988 15.5 49.3218C15.5 51.8449 13.481 53.8981 11 53.8981ZM34.5 48.8134C33.948 48.8134 33.5 48.3578 33.5 47.7964C33.5 47.2351 33.948 46.7795 34.5 46.7795C35.052 46.7795 35.5 47.2351 35.5 47.7964C35.5 48.3578 35.052 48.8134 34.5 48.8134ZM36.5 51.8642C35.948 51.8642 35.5 51.4086 35.5 50.8473C35.5 50.2859 35.948 49.8303 36.5 49.8303C37.052 49.8303 37.5 50.2859 37.5 50.8473C37.5 51.4086 37.052 51.8642 36.5 51.8642ZM38.5 48.8134C37.948 48.8134 37.5 48.3578 37.5 47.7964C37.5 47.2351 37.948 46.7795 38.5 46.7795C39.052 46.7795 39.5 47.2351 39.5 47.7964C39.5 48.3578 39.052 48.8134 38.5 48.8134ZM40.5 51.8642C39.948 51.8642 39.5 51.4086 39.5 50.8473C39.5 50.2859 39.948 49.8303 40.5 49.8303C41.052 49.8303 41.5 50.2859 41.5 50.8473C41.5 51.4086 41.052 51.8642 40.5 51.8642ZM42.5 48.8134C41.948 48.8134 41.5 48.3578 41.5 47.7964C41.5 47.2351 41.948 46.7795 42.5 46.7795C43.052 46.7795 43.5 47.2351 43.5 47.7964C43.5 48.3578 43.052 48.8134 42.5 48.8134ZM44.5 51.8642C43.948 51.8642 43.5 51.4086 43.5 50.8473C43.5 50.2859 43.948 49.8303 44.5 49.8303C45.052 49.8303 45.5 50.2859 45.5 50.8473C45.5 51.4086 45.052 51.8642 44.5 51.8642ZM46.5 48.8134C45.948 48.8134 45.5 48.3578 45.5 47.7964C45.5 47.2351 45.948 46.7795 46.5 46.7795C47.052 46.7795 47.5 47.2351 47.5 47.7964C47.5 48.3578 47.052 48.8134 46.5 48.8134ZM48.5 51.8642C47.948 51.8642 47.5 51.4086 47.5 50.8473C47.5 50.2859 47.948 49.8303 48.5 49.8303C49.052 49.8303 49.5 50.2859 49.5 50.8473C49.5 51.4086 49.052 51.8642 48.5 51.8642ZM50.5 48.8134C49.948 48.8134 49.5 48.3578 49.5 47.7964C49.5 47.2351 49.948 46.7795 50.5 46.7795C51.052 46.7795 51.5 47.2351 51.5 47.7964C51.5 48.3578 51.052 48.8134 50.5 48.8134ZM52.5 51.8642C51.948 51.8642 51.5 51.4086 51.5 50.8473C51.5 50.2859 51.948 49.8303 52.5 49.8303C53.052 49.8303 53.5 50.2859 53.5 50.8473C53.5 51.4086 53.052 51.8642 52.5 51.8642Z" fill="#FAB4BA"/>
<circle cx="11.1183" cy="10.6569" r="4.73108" fill="#F56976"/>
<circle cx="11.1183" cy="29.9991" r="4.73108" fill="#F56976"/>
<circle cx="11.1183" cy="49.3409" r="4.73108" fill="#F56976"/>
</svg>
