<svg width="61" height="61" viewBox="0 0 61 61" fill="none" xmlns="http://www.w3.org/2000/svg">
<path d="M22.6072 32.6279C19.1272 32.6279 16.3047 35.4504 16.3047 38.9304V54.6954C16.3047 58.1754 19.1272 60.9979 22.6072 60.9979C26.0872 60.9979 28.9097 58.1754 28.9097 54.6954V38.9304C28.9072 35.4504 26.0847 32.6279 22.6072 32.6279Z" fill="#F3818C"/>
<path d="M0.547363 38.9301C0.547363 42.4126 3.37239 45.2376 6.85493 45.2376C10.3375 45.2376 13.1625 42.4126 13.1625 38.9301V32.6226H6.85992C6.85742 32.6226 6.85743 32.6226 6.85493 32.6226C3.37239 32.6226 0.547363 35.4476 0.547363 38.9301V38.9301Z" fill="#F3818C"/>
<path d="M22.6148 0.997559C22.6123 0.997559 22.6098 0.997559 22.6073 0.997559C19.1248 0.997559 16.2998 3.82256 16.2998 7.30506C16.2998 10.7876 19.1248 13.6126 22.6073 13.6126H28.9098V7.30506C28.9098 7.30256 28.9098 7.29756 28.9098 7.29256C28.9073 3.81506 26.0898 0.997559 22.6148 0.997559V0.997559Z" fill="#87A1E6"/>
<path d="M6.81261 29.4251H22.6082C26.0908 29.4251 28.9159 26.6003 28.9159 23.118C28.9159 19.6358 26.0908 16.811 22.6082 16.811H6.81261C3.32999 16.811 0.504883 19.6358 0.504883 23.118C0.504883 26.6003 3.32999 29.4251 6.81261 29.4251V29.4251Z" fill="#87A1E6"/>
<path d="M54.1422 16.8076C50.6647 16.8076 47.8472 19.6251 47.8472 23.1026V23.1151V29.4226H54.1497C57.6322 29.4226 60.4572 26.5976 60.4572 23.1151C60.4572 19.6326 57.6322 16.8076 54.1497 16.8076C54.1472 16.8076 54.1447 16.8076 54.1422 16.8076V16.8076Z" fill="#95D8D8"/>
<path d="M32.1025 7.30521V23.1172C32.1025 26.597 34.925 29.4195 38.405 29.4195C41.885 29.4195 44.7075 26.597 44.7075 23.1172V7.30521C44.7075 3.82533 41.885 1.00293 38.405 1.00293C34.925 1.00293 32.1025 3.82533 32.1025 7.30521V7.30521Z" fill="#95D8D8"/>
<path d="M44.7051 54.6941C44.7051 51.2141 41.8826 48.3916 38.4026 48.3916H32.1001V54.6991C32.1026 58.1766 34.9226 60.9966 38.4026 60.9966C41.8826 60.9966 44.7051 58.1741 44.7051 54.6941Z" fill="#EBC691"/>
<path d="M54.1972 32.6226H38.4022C34.9197 32.6226 32.0947 35.4476 32.0947 38.9301C32.0947 42.4126 34.9197 45.2376 38.4022 45.2376H54.1972C57.6797 45.2376 60.5047 42.4126 60.5047 38.9301C60.5047 35.4476 57.6797 32.6226 54.1972 32.6226V32.6226Z" fill="#EBC691"/>
</svg>
