<svg width="48" height="32" viewBox="0 0 48 32" fill="none" xmlns="http://www.w3.org/2000/svg">
<path fill-rule="evenodd" clip-rule="evenodd" d="M32 0C14.3269 0 0 14.3269 0 32H31.9482C23.1355 31.9721 16 24.8194 16 16.0001C16 7.16353 23.1634 8.13802e-05 32 8.13802e-05V0Z" fill="#121726"/>
<path fill-rule="evenodd" clip-rule="evenodd" d="M26.4 30.9926C32.4747 28.7227 36.8 22.8664 36.8 16C36.8 9.13356 32.4747 3.27735 26.4 1.00737C28.143 0.356072 30.0299 0 32 0C40.8366 0 48 7.16344 48 16C48 24.8366 40.8366 32 32 32C30.0299 32 28.143 31.6439 26.4 30.9926Z" fill="#435FE4"/>
</svg>