<svg width="19" height="18" viewBox="0 0 19 18" fill="none" xmlns="http://www.w3.org/2000/svg">
                            <path id="linkedin" fill-rule="evenodd" clip-rule="evenodd"
                                  d="M4.58147 2.09779C4.55504 0.906987 3.6971 0 2.30395 0C0.910796 0 0 0.906987 0 2.09779C0 3.26393 0.883876 4.19703 2.25109 4.19703H2.27711C3.6971 4.19703 4.58147 3.26393 4.58147 2.09779ZM4.31324 5.85474H0.240805V17.9997H4.31324V5.85474ZM14.3111 5.56958C16.9909 5.56958 19 7.30577 19 11.0362L18.9998 17.9997H14.9276V11.5022C14.9276 9.87011 14.3383 8.75645 12.864 8.75645C11.7389 8.75645 11.0688 9.50722 10.7744 10.2324C10.6668 10.4922 10.6403 10.8543 10.6403 11.2173V18H6.56741C6.56741 18 6.62109 6.99471 6.56741 5.85509H10.6403V7.57532C11.1808 6.74837 12.1489 5.56958 14.3111 5.56958Z"
                                  fill="white"/>
                        </svg>