<svg width="20" height="16" viewBox="0 0 20 16" fill="none" xmlns="http://www.w3.org/2000/svg">
<path d="M9.401 4.25625L9.44297 4.9483L8.74349 4.86356C6.19739 4.53872 3.97304 3.4371 2.08445 1.58693L1.16114 0.668915L0.923313 1.34684C0.419688 2.85804 0.741448 4.45398 1.79067 5.52735C2.35025 6.12054 2.22434 6.20528 1.25906 5.85219C0.923313 5.7392 0.629531 5.65446 0.601552 5.69683C0.503625 5.7957 0.839375 7.08092 1.10518 7.58937C1.46891 8.29553 2.21035 8.98758 3.02175 9.39716L3.70724 9.72199L2.89584 9.73612C2.11243 9.73612 2.08445 9.75024 2.16839 10.0468C2.44818 10.9649 3.55335 11.9394 4.78444 12.3631L5.65179 12.6597L4.89636 13.1116C3.77719 13.7613 2.46217 14.1285 1.14715 14.1567C0.517615 14.1709 0 14.2273 0 14.2697C0 14.411 1.70673 15.2019 2.69999 15.5126C5.67977 16.4306 9.21914 16.0351 11.8772 14.4674C13.7658 13.3517 15.6543 11.1343 16.5357 8.98758C17.0113 7.84359 17.487 5.75333 17.487 4.75057C17.487 4.10089 17.529 4.01615 18.3124 3.23937C18.774 2.78742 19.2077 2.2931 19.2916 2.15187C19.4315 1.88352 19.4175 1.88352 18.7041 2.12362C17.515 2.54732 17.3471 2.49083 17.9346 1.85528C18.3683 1.40333 18.8859 0.584174 18.8859 0.344077C18.8859 0.301707 18.6761 0.372324 18.4383 0.499434C18.1865 0.640668 17.6269 0.852518 17.2072 0.979629L16.4518 1.21973L15.7663 0.753655C15.3885 0.499434 14.8569 0.216967 14.5771 0.132227C13.8637 -0.0655006 12.7725 -0.0372539 12.129 0.18872C10.3803 0.824272 9.27509 2.46258 9.401 4.25625Z" fill="white"/>
</svg>