<svg width="22" height="16" viewBox="0 0 22 16" fill="none" xmlns="http://www.w3.org/2000/svg">
<path fill-rule="evenodd" clip-rule="evenodd" d="M19.3347 1.12477C20.2526 1.37665 20.9756 2.11884 21.2209 3.06134C21.6667 4.76952 21.6667 8.33366 21.6667 8.33366C21.6667 8.33366 21.6667 11.8977 21.2209 13.606C20.9756 14.5485 20.2526 15.2907 19.3347 15.5427C17.6712 16.0003 11 16.0003 11 16.0003C11 16.0003 4.32889 16.0003 2.66525 15.5427C1.74731 15.2907 1.0244 14.5485 0.779071 13.606C0.333374 11.8977 0.333374 8.33366 0.333374 8.33366C0.333374 8.33366 0.333374 4.76952 0.779071 3.06134C1.0244 2.11884 1.74731 1.37665 2.66525 1.12477C4.32889 0.666992 11 0.666992 11 0.666992C11 0.666992 17.6712 0.666992 19.3347 1.12477ZM9.00005 5.33374V12.0004L14.3334 8.6672L9.00005 5.33374Z" fill="white"/>
</svg>